ffmpeg version 4.3.1 Copyright (c) 2000-2020 the FFmpeg developers
  built with gcc 9.3.0 (Alpine 9.3.0)
  configuration: --prefix=/usr --enable-avresample --enable-avfilter --enable-gnutls --enable-gpl --enable-libass --enable-libmp3lame --enable-libvorbis --enable-libvpx --enable-libxvid --enable-libx264 --enable-libx265 --enable-libtheora --enable-libv4l2 --enable-libdav1d --enable-postproc --enable-pic --enable-pthreads --enable-shared --enable-libxcb --enable-libssh --disable-stripping --disable-static --disable-librtmp --enable-vaapi --enable-vdpau --enable-libopus --enable-libaom --disable-debug
  libavutil      56. 51.100 / 56. 51.100
  libavcodec     58. 91.100 / 58. 91.100
  libavformat    58. 45.100 / 58. 45.100
  libavdevice    58. 10.100 / 58. 10.100
  libavfilter     7. 85.100 /  7. 85.100
  libavresample   4.  0.  0 /  4.  0.  0
  libswscale      5.  7.100 /  5.  7.100
  libswresample   3.  7.100 /  3.  7.100
  libpostproc    55.  7.100 / 55.  7.100
Input #0, image2pipe, from './tmp/gource.pipe':
  Duration: N/A, bitrate: N/A
    Stream #0:0: Video: ppm, rgb24, 1750x970, 60 fps, 60 tbr, 60 tbn, 60 tbc
Input #1, image2pipe, from './tmp/overlay.pipe':
  Duration: N/A, bitrate: N/A
    Stream #1:0: Video: ppm, rgb24, 1920x1080, 60 fps, 60 tbr, 60 tbn, 60 tbc
Stream mapping:
  Stream #0:0 (ppm) -> pad
  Stream #1:0 (ppm) -> scale
  Stream #1:0 (ppm) -> scale
  vstack -> Stream #0:0 (libx264)
Press [q] to stop, [?] for help
[image2pipe @ 0x7fb2badae1c0] Thread message queue blocking; consider raising the thread_queue_size option (current value: 8)
[image2pipe @ 0x7fb2b9171080] Thread message queue blocking; consider raising the thread_queue_size option (current value: 8)
[libx264 @ 0x564e4702b740] using cpu capabilities: MMX2 SSE2Fast SSSE3 SSE4.2 AVX FMA3 BMI2 AVX2 AVX512
[libx264 @ 0x564e4702b740] profile High, level 5.1, 4:2:0, 8-bit
[libx264 @ 0x564e4702b740] 264 - core 157 - H.264/MPEG-4 AVC codec - Copyleft 2003-2018 - http://www.videolan.org/x264.html - options: cabac=1 ref=3 deblock=1:0:0 analyse=0x3:0x113 me=hex subme=7 psy=1 psy_rd=1.00:0.00 mixed_ref=1 me_range=16 chroma_me=1 trellis=1 8x8dct=1 cqm=0 deadzone=21,11 fast_pskip=1 chroma_qp_offset=-2 threads=3 lookahead_threads=1 sliced_threads=0 nr=0 decimate=1 interlaced=0 bluray_compat=0 constrained_intra=0 bframes=0 weightp=2 keyint=250 keyint_min=25 scenecut=40 intra_refresh=0 rc_lookahead=40 rc=crf mbtree=1 crf=23.0 qcomp=0.60 qpmin=0 qpmax=69 qpstep=4 ip_ratio=1.40 aq=1:1.00
Output #0, mp4, to './output/gource.mp4':
  Metadata:
    encoder         : Lavf58.45.100
    Stream #0:0: Video: h264 (libx264) (avc1 / 0x31637661), yuv420p, 1920x1080, q=-1--1, 60 fps, 15360 tbn, 60 tbc (default)
    Metadata:
      encoder         : Lavc58.91.100 libx264
    Side data:
      cpb: bitrate max/min/avg: 0/0/0 buffer size: 0 vbv_delay: N/A
frame=   18 fps=0.0 q=0.0 size=       0kB time=00:00:00.00 bitrate=N/A speed=   0x    frame=   30 fps= 30 q=0.0 size=       0kB time=00:00:00.00 bitrate=N/A speed=   0x    frame=   42 fps= 27 q=0.0 size=       0kB time=00:00:00.00 bitrate=N/A speed=   0x    frame=   50 fps= 24 q=31.0 size=       0kB time=00:00:00.08 bitrate=   4.6kbits/s speed=0.0402x    frame=   60 fps= 23 q=31.0 size=       0kB time=00:00:00.25 bitrate=   1.5kbits/s speed=0.0968x    frame=   68 fps= 22 q=31.0 size=       0kB time=00:00:00.38 bitrate=   1.0kbits/s speed=0.124x    frame=   77 fps= 21 q=31.0 size=       0kB time=00:00:00.53 bitrate=   0.7kbits/s speed=0.148x    frame=   86 fps= 21 q=31.0 size=       0kB time=00:00:00.68 bitrate=   0.6kbits/s speed=0.165x    frame=   95 fps= 20 q=31.0 size=       0kB time=00:00:00.83 bitrate=   0.5kbits/s speed=0.178x    frame=  104 fps= 20 q=31.0 size=       0kB time=00:00:00.98 bitrate=   0.4kbits/s speed=0.188x    frame=  113 fps= 20 q=31.0 size=       0kB time=00:00:01.13 bitrate=   0.3kbits/s speed=0.196x    frame=  122 fps= 19 q=31.0 size=       0kB time=00:00:01.28 bitrate=   0.3kbits/s speed=0.203x    frame=  131 fps= 19 q=31.0 size=       0kB time=00:00:01.43 bitrate=   0.3kbits/s speed=0.209x    frame=  140 fps= 19 q=31.0 size=       0kB time=00:00:01.58 bitrate=   0.2kbits/s speed=0.213x    frame=  149 fps= 19 q=31.0 size=       0kB time=00:00:01.73 bitrate=   0.2kbits/s speed=0.217x    frame=  158 fps= 19 q=31.0 size=       0kB time=00:00:01.88 bitrate=   0.2kbits/s speed=0.221x    frame=  167 fps= 19 q=31.0 size=       0kB time=00:00:02.03 bitrate=   0.2kbits/s speed=0.225x    frame=  175 fps= 18 q=31.0 size=       0kB time=00:00:02.16 bitrate=   0.2kbits/s speed=0.226x    frame=  184 fps= 18 q=31.0 size=       0kB time=00:00:02.31 bitrate=   0.2kbits/s speed=0.229x    frame=  192 fps= 18 q=31.0 size=       0kB time=00:00:02.45 bitrate=   0.2kbits/s speed=0.23x    frame=  198 fps= 18 q=31.0 size=     256kB time=00:00:02.55 bitrate= 822.5kbits/s speed=0.228x    frame=  204 fps= 17 q=31.0 size=     256kB time=00:00:02.65 bitrate= 791.5kbits/s speed=0.227x    frame=  212 fps= 17 q=31.0 size=     256kB time=00:00:02.78 bitrate= 753.6kbits/s speed=0.226x    frame=  219 fps= 17 q=31.0 size=     256kB time=00:00:02.90 bitrate= 723.3kbits/s speed=0.225x    frame=  225 fps= 17 q=31.0 size=     256kB time=00:00:03.00 bitrate= 699.2kbits/s speed=0.224x    frame=  232 fps= 17 q=31.0 size=     256kB time=00:00:03.11 bitrate= 673.0kbits/s speed=0.223x    frame=  239 fps= 16 q=31.0 size=     256kB time=00:00:03.23 bitrate= 648.7kbits/s speed=0.222x    frame=  245 fps= 16 q=31.0 size=     256kB time=00:00:03.33 bitrate= 629.2kbits/s speed=0.221x    frame=  251 fps= 16 q=31.0 size=     256kB time=00:00:03.43 bitrate= 610.9kbits/s speed=0.219x    frame=  257 fps= 16 q=31.0 size=     256kB time=00:00:03.53 bitrate= 593.6kbits/s speed=0.217x    frame=  263 fps= 16 q=31.0 size=     256kB time=00:00:03.63 bitrate= 577.3kbits/s speed=0.216x    frame=  269 fps= 15 q=31.0 size=     256kB time=00:00:03.73 bitrate= 561.8kbits/s speed=0.215x    frame=  275 fps= 15 q=31.0 size=     512kB time=00:00:03.83 bitrate=1094.2kbits/s speed=0.213x    frame=  281 fps= 15 q=31.0 size=     512kB time=00:00:03.93 bitrate=1066.4kbits/s speed=0.212x    frame=  287 fps= 15 q=31.0 size=     512kB time=00:00:04.03 bitrate=1040.0kbits/s speed=0.21x    frame=  293 fps= 15 q=29.0 size=     512kB time=00:00:04.13 bitrate=1014.8kbits/s speed=0.209x    frame=  299 fps= 15 q=31.0 size=     512kB time=00:00:04.23 bitrate= 990.9kbits/s speed=0.208x    frame=  304 fps= 15 q=31.0 size=     512kB time=00:00:04.31 bitrate= 971.7kbits/s speed=0.207x    frame=  310 fps= 14 q=31.0 size=     512kB time=00:00:04.41 bitrate= 949.7kbits/s speed=0.206x    frame=  315 fps= 14 q=31.0 size=     512kB time=00:00:04.50 bitrate= 932.1kbits/s speed=0.205x    frame=  321 fps= 14 q=31.0 size=     512kB time=00:00:04.60 bitrate= 911.9kbits/s speed=0.204x    frame=  327 fps= 14 q=31.0 size=     768kB time=00:00:04.70 bitrate=1338.7kbits/s speed=0.203x    frame=  332 fps= 14 q=31.0 size=     768kB time=00:00:04.78 bitrate=1315.3kbits/s speed=0.203x    frame=  338 fps= 14 q=31.0 size=     768kB time=00:00:04.88 bitrate=1288.4kbits/s speed=0.202x    frame=  343 fps= 14 q=31.0 size=     768kB time=00:00:04.96 bitrate=1266.8kbits/s speed=0.201x    frame=  348 fps= 14 q=31.0 size=     768kB time=00:00:05.05 bitrate=1245.9kbits/s speed=0.201x    frame=  353 fps= 14 q=31.0 size=     768kB time=00:00:05.13 bitrate=1225.7kbits/s speed= 0.2x    frame=  359 fps= 14 q=31.0 size=     768kB time=00:00:05.23 bitrate=1202.2kbits/s speed= 0.2x    frame=  364 fps= 14 q=31.0 size=     768kB time=00:00:05.31 bitrate=1183.4kbits/s speed=0.199x    frame=  370 fps= 14 q=31.0 size=     768kB time=00:00:05.41 bitrate=1161.6kbits/s speed=0.198x    frame=  376 fps= 13 q=31.0 size=     768kB time=00:00:05.51 bitrate=1140.5kbits/s speed=0.198x    frame=  382 fps= 13 q=31.0 size=     768kB time=00:00:05.61 bitrate=1120.2kbits/s speed=0.197x    frame=  388 fps= 13 q=31.0 size=    1024kB time=00:00:05.71 bitrate=1467.4kbits/s speed=0.197x    frame=  394 fps= 13 q=31.0 size=    1024kB time=00:00:05.81 bitrate=1442.2kbits/s speed=0.197x    frame=  399 fps= 13 q=31.0 size=    1024kB time=00:00:05.90 bitrate=1421.8kbits/s speed=0.196x    frame=  405 fps= 13 q=31.0 size=    1024kB time=00:00:06.00 bitrate=1398.2kbits/s speed=0.196x    frame=  412 fps= 13 q=31.0 size=    1024kB time=00:00:06.11 bitrate=1371.5kbits/s speed=0.196x    frame=  417 fps= 13 q=31.0 size=    1024kB time=00:00:06.20 bitrate=1353.0kbits/s speed=0.195x    frame=  423 fps= 13 q=31.0 size=    1024kB time=00:00:06.30 bitrate=1331.6kbits/s speed=0.195x    frame=  429 fps= 13 q=31.0 size=    1024kB time=00:00:06.40 bitrate=1310.8kbits/s speed=0.194x    frame=  435 fps= 13 q=31.0 size=    1024kB time=00:00:06.50 bitrate=1290.6kbits/s speed=0.194x    frame=  440 fps= 13 q=31.0 size=    1024kB time=00:00:06.58 bitrate=1274.3kbits/s speed=0.194x    frame=  446 fps= 13 q=31.0 size=    1024kB time=00:00:06.68 bitrate=1255.2kbits/s speed=0.193x    frame=  451 fps= 13 q=31.0 size=    1024kB time=00:00:06.76 bitrate=1239.7kbits/s speed=0.193x    frame=  457 fps= 13 q=31.0 size=    1024kB time=00:00:06.86 bitrate=1221.7kbits/s speed=0.193x    frame=  463 fps= 13 q=31.0 size=    1280kB time=00:00:06.96 bitrate=1505.2kbits/s speed=0.192x    frame=  469 fps= 13 q=31.0 size=    1280kB time=00:00:07.06 bitrate=1483.9kbits/s speed=0.192x    frame=  474 fps= 13 q=31.0 size=    1280kB time=00:00:07.15 bitrate=1466.6kbits/s speed=0.191x    frame=  480 fps= 13 q=31.0 size=    1280kB time=00:00:07.25 bitrate=1446.4kbits/s speed=0.191x    frame=  485 fps= 13 q=31.0 size=    1280kB time=00:00:07.33 bitrate=1429.9kbits/s speed=0.19x    frame=  491 fps= 13 q=31.0 size=    1280kB time=00:00:07.43 bitrate=1410.7kbits/s speed=0.19x    frame=  496 fps= 12 q=31.0 size=    1280kB time=00:00:07.51 bitrate=1395.0kbits/s speed=0.189x    frame=  501 fps= 12 q=31.0 size=    1280kB time=00:00:07.60 bitrate=1379.7kbits/s speed=0.189x    frame=  506 fps= 12 q=31.0 size=    1280kB time=00:00:07.68 bitrate=1364.8kbits/s speed=0.188x    frame=  511 fps= 12 q=31.0 size=    1280kB time=00:00:07.76 bitrate=1350.1kbits/s speed=0.188x    frame=  516 fps= 12 q=31.0 size=    1536kB time=00:00:07.85 bitrate=1603.0kbits/s speed=0.187x    frame=  521 fps= 12 q=31.0 size=    1536kB time=00:00:07.93 bitrate=1586.1kbits/s speed=0.187x    frame=  526 fps= 12 q=31.0 size=    1536kB time=00:00:08.01 bitrate=1569.6kbits/s speed=0.186x    frame=  531 fps= 12 q=31.0 size=    1536kB time=00:00:08.10 bitrate=1553.5kbits/s speed=0.186x    frame=  536 fps= 12 q=31.0 size=    1536kB time=00:00:08.18 bitrate=1537.7kbits/s speed=0.186x    frame=  541 fps= 12 q=31.0 size=    1536kB time=00:00:08.26 bitrate=1522.2kbits/s speed=0.185x    frame=  547 fps= 12 q=31.0 size=    1536kB time=00:00:08.36 bitrate=1504.0kbits/s speed=0.185x    frame=  551 fps= 12 q=31.0 size=    1536kB time=00:00:08.43 bitrate=1492.1kbits/s speed=0.185x    frame=  557 fps= 12 q=31.0 size=    1792kB time=00:00:08.53 bitrate=1720.4kbits/s speed=0.185x    frame=  561 fps= 12 q=31.0 size=    1792kB time=00:00:08.60 bitrate=1707.0kbits/s speed=0.184x    frame=  566 fps= 12 q=31.0 size=    1792kB time=00:00:08.68 bitrate=1690.6kbits/s speed=0.184x    frame=  571 fps= 12 q=31.0 size=    1792kB time=00:00:08.76 bitrate=1674.6kbits/s speed=0.183x    frame=  576 fps= 12 q=31.0 size=    1792kB time=00:00:08.85 bitrate=1658.8kbits/s speed=0.183x    frame=  581 fps= 12 q=31.0 size=    1792kB time=00:00:08.93 bitrate=1643.3kbits/s speed=0.183x    frame=  588 fps= 12 q=31.0 size=    1792kB time=00:00:09.05 bitrate=1622.1kbits/s speed=0.182x    frame=  593 fps= 12 q=31.0 size=    1792kB time=00:00:09.13 bitrate=1607.3kbits/s speed=0.182x    frame=  599 fps= 12 q=31.0 size=    2048kB time=00:00:09.23 bitrate=1817.1kbits/s speed=0.182x    frame=  604 fps= 12 q=31.0 size=    2048kB time=00:00:09.31 bitrate=1800.8kbits/s speed=0.182x    frame=  609 fps= 12 q=31.0 size=    2048kB time=00:00:09.40 bitrate=1784.8kbits/s speed=0.181x    frame=  615 fps= 12 q=31.0 size=    2048kB time=00:00:09.50 bitrate=1766.1kbits/s speed=0.181x    frame=  620 fps= 12 q=31.0 size=    2048kB time=00:00:09.58 bitrate=1750.7kbits/s speed=0.181x    frame=  626 fps= 12 q=31.0 size=    2048kB time=00:00:09.68 bitrate=1732.6kbits/s speed=0.181x    frame=  632 fps= 12 q=31.0 size=    2048kB time=00:00:09.78 bitrate=1714.9kbits/s speed=0.181x    frame=  638 fps= 12 q=31.0 size=    2048kB time=00:00:09.88 bitrate=1697.6kbits/s speed=0.181x    frame=  643 fps= 12 q=31.0 size=    2048kB time=00:00:09.96 bitrate=1683.4kbits/s speed=0.18x    frame=  648 fps= 12 q=31.0 size=    2048kB time=00:00:10.05 bitrate=1669.4kbits/s speed=0.18x    frame=  653 fps= 12 q=31.0 size=    2048kB time=00:00:10.13 bitrate=1655.7kbits/s speed=0.18x    frame=  658 fps= 12 q=31.0 size=    2304kB time=00:00:10.21 bitrate=1847.4kbits/s speed=0.18x    frame=  663 fps= 12 q=31.0 size=    2304kB time=00:00:10.30 bitrate=1832.5kbits/s speed=0.18x    frame=  668 fps= 12 q=31.0 size=    2304kB time=00:00:10.38 bitrate=1817.8kbits/s speed=0.179x    frame=  673 fps= 12 q=31.0 size=    2304kB time=00:00:10.46 bitrate=1803.3kbits/s speed=0.179x    frame=  678 fps= 12 q=31.0 size=    2304kB time=00:00:10.55 bitrate=1789.1kbits/s speed=0.179x    frame=  683 fps= 11 q=31.0 size=    2304kB time=00:00:10.63 bitrate=1775.0kbits/s speed=0.179x    frame=  689 fps= 11 q=31.0 size=    2304kB time=00:00:10.73 bitrate=1758.5kbits/s speed=0.179x    frame=  694 fps= 11 q=31.0 size=    2304kB time=00:00:10.81 bitrate=1745.0kbits/s speed=0.178x    frame=  699 fps= 11 q=31.0 size=    2304kB time=00:00:10.90 bitrate=1731.6kbits/s speed=0.178x    frame=  704 fps= 11 q=31.0 size=    2304kB time=00:00:10.98 bitrate=1718.5kbits/s speed=0.178x    frame=  709 fps= 11 q=31.0 size=    2304kB time=00:00:11.06 bitrate=1705.5kbits/s speed=0.178x    frame=  714 fps= 11 q=31.0 size=    2560kB time=00:00:11.15 bitrate=1880.9kbits/s speed=0.177x    frame=  719 fps= 11 q=31.0 size=    2560kB time=00:00:11.23 bitrate=1866.9kbits/s speed=0.177x    frame=  724 fps= 11 q=31.0 size=    2560kB time=00:00:11.31 bitrate=1853.2kbits/s speed=0.177x    frame=  729 fps= 11 q=31.0 size=    2560kB time=00:00:11.40 bitrate=1839.6kbits/s speed=0.177x    frame=  734 fps= 11 q=31.0 size=    2560kB time=00:00:11.48 bitrate=1826.3kbits/s speed=0.176x    frame=  739 fps= 11 q=31.0 size=    2560kB time=00:00:11.56 bitrate=1813.1kbits/s speed=0.176x    frame=  744 fps= 11 q=31.0 size=    2560kB time=00:00:11.65 bitrate=1800.2kbits/s speed=0.176x    frame=  749 fps= 11 q=31.0 size=    2560kB time=00:00:11.73 bitrate=1787.4kbits/s speed=0.176x    frame=  754 fps= 11 q=31.0 size=    2560kB time=00:00:11.81 bitrate=1774.8kbits/s speed=0.175x    frame=  759 fps= 11 q=31.0 size=    2816kB time=00:00:11.90 bitrate=1938.6kbits/s speed=0.175x    frame=  764 fps= 11 q=31.0 size=    2816kB time=00:00:11.98 bitrate=1925.1kbits/s speed=0.175x    frame=  769 fps= 11 q=31.0 size=    2816kB time=00:00:12.06 bitrate=1911.8kbits/s speed=0.175x    frame=  774 fps= 11 q=31.0 size=    2816kB time=00:00:12.15 bitrate=1898.7kbits/s speed=0.175x    frame=  779 fps= 11 q=31.0 size=    2816kB time=00:00:12.23 bitrate=1885.7kbits/s speed=0.174x    frame=  784 fps= 11 q=31.0 size=    2816kB time=00:00:12.31 bitrate=1873.0kbits/s speed=0.174x    frame=  789 fps= 11 q=31.0 size=    2816kB time=00:00:12.40 bitrate=1860.4kbits/s speed=0.174x    frame=  794 fps= 11 q=31.0 size=    2816kB time=00:00:12.48 bitrate=1848.0kbits/s speed=0.174x    frame=  799 fps= 11 q=31.0 size=    3072kB time=00:00:12.56 bitrate=2002.6kbits/s speed=0.174x    frame=  804 fps= 11 q=31.0 size=    3072kB time=00:00:12.65 bitrate=1989.4kbits/s speed=0.174x    frame=  809 fps= 11 q=31.0 size=    3072kB time=00:00:12.73 bitrate=1976.4kbits/s speed=0.173x    frame=  814 fps= 11 q=31.0 size=    3072kB time=00:00:12.81 bitrate=1963.5kbits/s speed=0.173x    frame=  819 fps= 11 q=31.0 size=    3072kB time=00:00:12.90 bitrate=1950.9kbits/s speed=0.173x    frame=  824 fps= 11 q=31.0 size=    3072kB time=00:00:12.98 bitrate=1938.3kbits/s speed=0.173x    frame=  830 fps= 11 q=31.0 size=    3072kB time=00:00:13.08 bitrate=1923.5kbits/s speed=0.173x    frame=  836 fps= 11 q=31.0 size=    3072kB time=00:00:13.18 bitrate=1908.9kbits/s speed=0.173x    frame=  840 fps= 11 q=31.0 size=    3072kB time=00:00:13.25 bitrate=1899.3kbits/s speed=0.173x    frame=  844 fps= 11 q=31.0 size=    3072kB time=00:00:13.31 bitrate=1889.8kbits/s speed=0.173x    frame=  849 fps= 11 q=31.0 size=    3072kB time=00:00:13.40 bitrate=1878.1kbits/s speed=0.172x    frame=  854 fps= 11 q=31.0 size=    3328kB time=00:00:13.48 bitrate=2022.0kbits/s speed=0.172x    frame=  860 fps= 11 q=31.0 size=    3328kB time=00:00:13.58 bitrate=2007.1kbits/s speed=0.172x    frame=  865 fps= 11 q=31.0 size=    3328kB time=00:00:13.66 bitrate=1994.9kbits/s speed=0.172x    frame=  870 fps= 11 q=31.0 size=    3328kB time=00:00:13.75 bitrate=1982.8kbits/s speed=0.172x    frame=  875 fps= 11 q=31.0 size=    3328kB time=00:00:13.83 bitrate=1970.8kbits/s speed=0.172x    frame=  880 fps= 11 q=31.0 size=    3328kB time=00:00:13.91 bitrate=1959.0kbits/s speed=0.172x    frame=  885 fps= 11 q=31.0 size=    3328kB time=00:00:14.00 bitrate=1947.4kbits/s speed=0.172x    frame=  890 fps= 11 q=31.0 size=    3328kB time=00:00:14.08 bitrate=1935.9kbits/s speed=0.172x    frame=  895 fps= 11 q=31.0 size=    3328kB time=00:00:14.16 bitrate=1924.5kbits/s speed=0.172x    frame=  900 fps= 11 q=31.0 size=    3328kB time=00:00:14.25 bitrate=1913.2kbits/s speed=0.171x    frame=  906 fps= 11 q=31.0 size=    3328kB time=00:00:14.35 bitrate=1899.9kbits/s speed=0.171x    frame=  912 fps= 11 q=31.0 size=    3328kB time=00:00:14.45 bitrate=1886.7kbits/s speed=0.171x    frame=  917 fps= 11 q=31.0 size=    3328kB time=00:00:14.53 bitrate=1875.9kbits/s speed=0.171x    frame=  923 fps= 11 q=31.0 size=    3584kB time=00:00:14.63 bitrate=2006.4kbits/s speed=0.171x    frame=  928 fps= 11 q=31.0 size=    3584kB time=00:00:14.71 bitrate=1995.0kbits/s speed=0.171x    frame=  934 fps= 11 q=31.0 size=    3584kB time=00:00:14.81 bitrate=1981.6kbits/s speed=0.171x    frame=  939 fps= 11 q=31.0 size=    3584kB time=00:00:14.90 bitrate=1970.5kbits/s speed=0.171x    frame=  944 fps= 11 q=31.0 size=    3584kB time=00:00:14.98 bitrate=1959.5kbits/s speed=0.171x    frame=  950 fps= 11 q=31.0 size=    3584kB time=00:00:15.08 bitrate=1946.5kbits/s speed=0.171x    frame=  954 fps= 11 q=31.0 size=    3584kB time=00:00:15.15 bitrate=1938.0kbits/s speed=0.171x    frame=  959 fps= 11 q=31.0 size=    3584kB time=00:00:15.23 bitrate=1927.4kbits/s speed=0.171x    frame=  964 fps= 11 q=31.0 size=    3584kB time=00:00:15.31 bitrate=1916.9kbits/s speed=0.17x    frame=  971 fps= 11 q=31.0 size=    3584kB time=00:00:15.43 bitrate=1902.4kbits/s speed=0.171x    frame=  979 fps= 11 q=31.0 size=    3584kB time=00:00:15.56 bitrate=1886.1kbits/s speed=0.171x    frame=  984 fps= 11 q=31.0 size=    3584kB time=00:00:15.65 bitrate=1876.1kbits/s speed=0.171x    frame=  991 fps= 11 q=31.0 size=    3584kB time=00:00:15.76 bitrate=1862.2kbits/s speed=0.172x    frame=  996 fps= 11 q=31.0 size=    3584kB time=00:00:15.85 bitrate=1852.4kbits/s speed=0.171x    frame= 1002 fps= 11 q=31.0 size=    3584kB time=00:00:15.95 bitrate=1840.8kbits/s speed=0.171x    frame= 1009 fps= 11 q=31.0 size=    3584kB time=00:00:16.06 bitrate=1827.4kbits/s speed=0.172x    frame= 1014 fps= 11 q=31.0 size=    3584kB time=00:00:16.15 bitrate=1818.0kbits/s speed=0.172x    frame= 1016 fps= 11 q=31.0 size=    3584kB time=00:00:16.18 bitrate=1814.2kbits/s speed=0.171x    frame= 1021 fps= 11 q=31.0 size=    3584kB time=00:00:16.26 bitrate=1804.9kbits/s speed=0.171x    frame= 1025 fps= 11 q=31.0 size=    3584kB time=00:00:16.33 bitrate=1797.6kbits/s speed=0.17x    frame= 1031 fps= 11 q=31.0 size=    3840kB time=00:00:16.43 bitrate=1914.3kbits/s speed=0.17x    frame= 1036 fps= 11 q=31.0 size=    3840kB time=00:00:16.51 bitrate=1904.6kbits/s speed=0.17x    frame= 1041 fps= 11 q=31.0 size=    3840kB time=00:00:16.60 bitrate=1895.0kbits/s speed=0.17x    frame= 1047 fps= 11 q=31.0 size=    3840kB time=00:00:16.70 bitrate=1883.7kbits/s speed=0.17x    frame= 1052 fps= 11 q=31.0 size=    3840kB time=00:00:16.78 bitrate=1874.3kbits/s speed=0.17x    frame= 1057 fps= 11 q=31.0 size=    3840kB time=00:00:16.86 bitrate=1865.1kbits/s speed=0.17x    frame= 1062 fps= 11 q=31.0 size=    3840kB time=00:00:16.95 bitrate=1855.9kbits/s speed=0.17x    frame= 1066 fps= 11 q=31.0 size=    3840kB time=00:00:17.01 bitrate=1848.6kbits/s speed=0.17x    frame= 1071 fps= 11 q=31.0 size=    3840kB time=00:00:17.10 bitrate=1839.6kbits/s speed=0.17x    frame= 1076 fps= 11 q=31.0 size=    3840kB time=00:00:17.18 bitrate=1830.7kbits/s speed=0.17x    frame= 1081 fps= 11 q=31.0 size=    4096kB time=00:00:17.26 bitrate=1943.3kbits/s speed=0.17x    frame= 1086 fps= 11 q=31.0 size=    4096kB time=00:00:17.35 bitrate=1934.0kbits/s speed=0.17x    frame= 1091 fps= 11 q=31.0 size=    4096kB time=00:00:17.43 bitrate=1924.7kbits/s speed=0.169x    frame= 1096 fps= 11 q=31.0 size=    4096kB time=00:00:17.51 bitrate=1915.6kbits/s speed=0.169x    frame= 1101 fps= 11 q=31.0 size=    4096kB time=00:00:17.60 bitrate=1906.5kbits/s speed=0.169x    frame= 1106 fps= 11 q=31.0 size=    4096kB time=00:00:17.68 bitrate=1897.5kbits/s speed=0.169x    frame= 1111 fps= 11 q=31.0 size=    4096kB time=00:00:17.76 bitrate=1888.6kbits/s speed=0.169x    frame= 1116 fps= 11 q=31.0 size=    4096kB time=00:00:17.85 bitrate=1879.8kbits/s speed=0.169x    frame= 1121 fps= 11 q=31.0 size=    4096kB time=00:00:17.93 bitrate=1871.1kbits/s speed=0.169x    frame= 1126 fps= 11 q=31.0 size=    4096kB time=00:00:18.01 bitrate=1862.4kbits/s speed=0.169x    frame= 1131 fps= 11 q=31.0 size=    4352kB time=00:00:18.10 bitrate=1969.7kbits/s speed=0.169x    frame= 1136 fps= 11 q=31.0 size=    4352kB time=00:00:18.18 bitrate=1960.7kbits/s speed=0.169x    frame= 1141 fps= 11 q=31.0 size=    4352kB time=00:00:18.26 bitrate=1951.7kbits/s speed=0.169x    frame= 1146 fps= 11 q=31.0 size=    4352kB time=00:00:18.35 bitrate=1942.9kbits/s speed=0.169x    frame= 1151 fps= 11 q=31.0 size=    4352kB time=00:00:18.43 bitrate=1934.1kbits/s speed=0.168x    frame= 1156 fps= 11 q=31.0 size=    4352kB time=00:00:18.51 bitrate=1925.4kbits/s speed=0.168x    frame= 1161 fps= 11 q=31.0 size=    4352kB time=00:00:18.60 bitrate=1916.8kbits/s speed=0.168x    frame= 1166 fps= 11 q=31.0 size=    4352kB time=00:00:18.68 bitrate=1908.2kbits/s speed=0.168x    frame= 1171 fps= 10 q=31.0 size=    4352kB time=00:00:18.76 bitrate=1899.7kbits/s speed=0.168x    frame= 1176 fps= 10 q=31.0 size=    4352kB time=00:00:18.85 bitrate=1891.3kbits/s speed=0.168x    frame= 1181 fps= 10 q=31.0 size=    4352kB time=00:00:18.93 bitrate=1883.0kbits/s speed=0.168x    frame= 1186 fps= 10 q=31.0 size=    4608kB time=00:00:19.01 bitrate=1985.0kbits/s speed=0.168x    frame= 1191 fps= 10 q=31.0 size=    4608kB time=00:00:19.10 bitrate=1976.4kbits/s speed=0.168x    frame= 1196 fps= 10 q=31.0 size=    4608kB time=00:00:19.18 bitrate=1967.8kbits/s speed=0.168x    frame= 1201 fps= 10 q=31.0 size=    4608kB time=00:00:19.26 bitrate=1959.3kbits/s speed=0.168x    frame= 1207 fps= 10 q=31.0 size=    4608kB time=00:00:19.36 bitrate=1949.2kbits/s speed=0.168x    frame= 1212 fps= 10 q=31.0 size=    4608kB time=00:00:19.45 bitrate=1940.8kbits/s speed=0.168x    frame= 1217 fps= 10 q=31.0 size=    4608kB time=00:00:19.53 bitrate=1932.5kbits/s speed=0.168x    frame= 1222 fps= 10 q=31.0 size=    4608kB time=00:00:19.61 bitrate=1924.3kbits/s speed=0.168x    frame= 1227 fps= 10 q=31.0 size=    4608kB time=00:00:19.70 bitrate=1916.2kbits/s speed=0.168x    frame= 1232 fps= 10 q=31.0 size=    4608kB time=00:00:19.78 bitrate=1908.1kbits/s speed=0.168x    frame= 1237 fps= 10 q=31.0 size=    4608kB time=00:00:19.86 bitrate=1900.1kbits/s speed=0.168x    frame= 1242 fps= 10 q=31.0 size=    4608kB time=00:00:19.95 bitrate=1892.2kbits/s speed=0.168x    frame= 1248 fps= 10 q=31.0 size=    4608kB time=00:00:20.05 bitrate=1882.7kbits/s speed=0.168x    frame= 1256 fps= 10 q=31.0 size=    4608kB time=00:00:20.18 bitrate=1870.3kbits/s speed=0.168x    frame= 1262 fps= 10 q=31.0 size=    4608kB time=00:00:20.28 bitrate=1861.1kbits/s speed=0.168x    frame= 1267 fps= 10 q=31.0 size=    4608kB time=00:00:20.36 bitrate=1853.5kbits/s speed=0.168x    frame= 1272 fps= 10 q=31.0 size=    4608kB time=00:00:20.45 bitrate=1845.9kbits/s speed=0.168x    frame= 1278 fps= 10 q=31.0 size=    4864kB time=00:00:20.55 bitrate=1939.0kbits/s speed=0.168x    frame= 1283 fps= 10 q=31.0 size=    4864kB time=00:00:20.63 bitrate=1931.2kbits/s speed=0.168x    frame= 1290 fps= 10 q=31.0 size=    4864kB time=00:00:20.75 bitrate=1920.3kbits/s speed=0.168x    frame= 1295 fps= 10 q=31.0 size=    4864kB time=00:00:20.83 bitrate=1912.6kbits/s speed=0.168x    frame= 1302 fps= 10 q=31.0 size=    4864kB time=00:00:20.95 bitrate=1902.0kbits/s speed=0.168x    frame= 1308 fps= 10 q=31.0 size=    4864kB time=00:00:21.05 bitrate=1892.9kbits/s speed=0.168x    frame= 1314 fps= 10 q=31.0 size=    4864kB time=00:00:21.15 bitrate=1884.0kbits/s speed=0.168x    frame= 1319 fps= 10 q=31.0 size=    4864kB time=00:00:21.23 bitrate=1876.6kbits/s speed=0.168x    frame= 1325 fps= 10 q=31.0 size=    4864kB time=00:00:21.33 bitrate=1867.8kbits/s speed=0.168x    frame= 1332 fps= 10 q=31.0 size=    4864kB time=00:00:21.45 bitrate=1857.6kbits/s speed=0.169x    frame= 1336 fps= 10 q=31.0 size=    4864kB time=00:00:21.51 bitrate=1851.9kbits/s speed=0.168x    frame= 1342 fps= 10 q=31.0 size=    4864kB time=00:00:21.61 bitrate=1843.3kbits/s speed=0.168x    frame= 1347 fps= 10 q=31.0 size=    4864kB time=00:00:21.70 bitrate=1836.2kbits/s speed=0.168x    frame= 1351 fps= 10 q=31.0 size=    4864kB time=00:00:21.76 bitrate=1830.6kbits/s speed=0.168x    frame= 1357 fps= 10 q=31.0 size=    4864kB time=00:00:21.86 bitrate=1822.2kbits/s speed=0.168x    frame= 1363 fps= 10 q=31.0 size=    4864kB time=00:00:21.96 bitrate=1813.9kbits/s speed=0.168x    frame= 1367 fps= 10 q=31.0 size=    4864kB time=00:00:22.03 bitrate=1808.4kbits/s speed=0.168x    frame= 1373 fps= 10 q=31.0 size=    4864kB time=00:00:22.13 bitrate=1800.3kbits/s speed=0.168x    frame= 1378 fps= 10 q=31.0 size=    4864kB time=00:00:22.21 bitrate=1793.5kbits/s speed=0.168x    frame= 1384 fps= 10 q=31.0 size=    4864kB time=00:00:22.31 bitrate=1785.5kbits/s speed=0.168x    frame= 1389 fps= 10 q=31.0 size=    5120kB time=00:00:22.40 bitrate=1872.5kbits/s speed=0.168x    frame= 1394 fps= 10 q=31.0 size=    5120kB time=00:00:22.48 bitrate=1865.5kbits/s speed=0.168x    frame= 1399 fps= 10 q=31.0 size=    5120kB time=00:00:22.56 bitrate=1858.6kbits/s speed=0.168x    frame= 1404 fps= 10 q=31.0 size=    5120kB time=00:00:22.65 bitrate=1851.8kbits/s speed=0.168x    frame= 1409 fps= 10 q=31.0 size=    5120kB time=00:00:22.73 bitrate=1845.0kbits/s speed=0.168x    frame= 1414 fps= 10 q=31.0 size=    5120kB time=00:00:22.81 bitrate=1838.3kbits/s speed=0.168x    frame= 1419 fps= 10 q=31.0 size=    5120kB time=00:00:22.90 bitrate=1831.6kbits/s speed=0.168x    frame= 1424 fps= 10 q=31.0 size=    5120kB time=00:00:22.98 bitrate=1824.9kbits/s speed=0.168x    frame= 1429 fps= 10 q=31.0 size=    5120kB time=00:00:23.06 bitrate=1818.4kbits/s speed=0.167x    frame= 1435 fps= 10 q=31.0 size=    5120kB time=00:00:23.16 bitrate=1810.5kbits/s speed=0.167x    frame= 1440 fps= 10 q=31.0 size=    5120kB time=00:00:23.25 bitrate=1804.0kbits/s speed=0.167x    frame= 1445 fps= 10 q=31.0 size=    5376kB time=00:00:23.33 bitrate=1887.4kbits/s speed=0.167x    frame= 1451 fps= 10 q=31.0 size=    5376kB time=00:00:23.43 bitrate=1879.4kbits/s speed=0.167x    frame= 1456 fps= 10 q=31.0 size=    5376kB time=00:00:23.51 bitrate=1872.7kbits/s speed=0.167x    frame= 1461 fps= 10 q=31.0 size=    5376kB time=00:00:23.60 bitrate=1866.1kbits/s speed=0.167x    frame= 1466 fps= 10 q=31.0 size=    5376kB time=00:00:23.68 bitrate=1859.6kbits/s speed=0.167x    frame= 1471 fps= 10 q=31.0 size=    5376kB time=00:00:23.76 bitrate=1853.0kbits/s speed=0.167x    frame= 1476 fps= 10 q=31.0 size=    5376kB time=00:00:23.85 bitrate=1846.6kbits/s speed=0.167x    frame= 1481 fps= 10 q=31.0 size=    5376kB time=00:00:23.93 bitrate=1840.1kbits/s speed=0.167x    frame= 1486 fps= 10 q=31.0 size=    5376kB time=00:00:24.01 bitrate=1833.7kbits/s speed=0.167x    frame= 1491 fps= 10 q=31.0 size=    5376kB time=00:00:24.10 bitrate=1827.4kbits/s speed=0.167x    frame= 1496 fps= 10 q=31.0 size=    5376kB time=00:00:24.18 bitrate=1821.1kbits/s speed=0.167x    frame= 1502 fps= 10 q=31.0 size=    5376kB time=00:00:24.28 bitrate=1813.6kbits/s speed=0.167x    frame= 1507 fps= 10 q=31.0 size=    5632kB time=00:00:24.36 bitrate=1893.5kbits/s speed=0.167x    frame= 1512 fps= 10 q=31.0 size=    5632kB time=00:00:24.45 bitrate=1887.0kbits/s speed=0.167x    frame= 1517 fps= 10 q=31.0 size=    5632kB time=00:00:24.53 bitrate=1880.6kbits/s speed=0.167x    frame= 1522 fps= 10 q=31.0 size=    5632kB time=00:00:24.61 bitrate=1874.2kbits/s speed=0.167x    frame= 1527 fps= 10 q=31.0 size=    5632kB time=00:00:24.70 bitrate=1867.9kbits/s speed=0.167x    frame= 1532 fps= 10 q=31.0 size=    5632kB time=00:00:24.78 bitrate=1861.6kbits/s speed=0.166x    frame= 1537 fps= 10 q=31.0 size=    5632kB time=00:00:24.86 bitrate=1855.4kbits/s speed=0.166x    frame= 1542 fps= 10 q=31.0 size=    5632kB time=00:00:24.95 bitrate=1849.2kbits/s speed=0.166x    frame= 1547 fps= 10 q=31.0 size=    5632kB time=00:00:25.03 bitrate=1843.0kbits/s speed=0.166x    frame= 1552 fps= 10 q=31.0 size=    5632kB time=00:00:25.11 bitrate=1836.9kbits/s speed=0.166x    frame= 1557 fps= 10 q=31.0 size=    5888kB time=00:00:25.20 bitrate=1914.1kbits/s speed=0.166x    frame= 1562 fps= 10 q=31.0 size=    5888kB time=00:00:25.28 bitrate=1907.8kbits/s speed=0.166x    frame= 1567 fps= 10 q=31.0 size=    5888kB time=00:00:25.36 bitrate=1901.5kbits/s speed=0.166x    frame= 1573 fps= 10 q=31.0 size=    5888kB time=00:00:25.46 bitrate=1894.0kbits/s speed=0.166x    frame= 1578 fps= 10 q=31.0 size=    5888kB time=00:00:25.55 bitrate=1887.9kbits/s speed=0.166x    frame= 1583 fps= 10 q=31.0 size=    5888kB time=00:00:25.63 bitrate=1881.7kbits/s speed=0.166x    frame= 1588 fps= 10 q=31.0 size=    5888kB time=00:00:25.71 bitrate=1875.6kbits/s speed=0.166x    frame= 1593 fps= 10 q=31.0 size=    5888kB time=00:00:25.80 bitrate=1869.6kbits/s speed=0.166x    frame= 1598 fps= 10 q=31.0 size=    5888kB time=00:00:25.88 bitrate=1863.5kbits/s speed=0.166x    frame= 1603 fps= 10 q=31.0 size=    5888kB time=00:00:25.96 bitrate=1857.6kbits/s speed=0.166x    frame= 1608 fps= 10 q=31.0 size=    6144kB time=00:00:26.05 bitrate=1932.1kbits/s speed=0.166x    frame= 1613 fps= 10 q=31.0 size=    6144kB time=00:00:26.13 bitrate=1926.0kbits/s speed=0.166x    frame= 1618 fps= 10 q=31.0 size=    6144kB time=00:00:26.21 bitrate=1919.8kbits/s speed=0.166x    frame= 1623 fps= 10 q=31.0 size=    6144kB time=00:00:26.30 bitrate=1913.8kbits/s speed=0.165x    frame= 1628 fps= 10 q=31.0 size=    6144kB time=00:00:26.38 bitrate=1907.7kbits/s speed=0.165x    frame= 1633 fps= 10 q=31.0 size=    6144kB time=00:00:26.46 bitrate=1901.7kbits/s speed=0.165x    frame= 1638 fps= 10 q=31.0 size=    6144kB time=00:00:26.55 bitrate=1895.7kbits/s speed=0.165x    frame= 1643 fps= 10 q=31.0 size=    6144kB time=00:00:26.63 bitrate=1889.8kbits/s speed=0.165x    frame= 1648 fps= 10 q=31.0 size=    6144kB time=00:00:26.71 bitrate=1883.9kbits/s speed=0.165x    frame= 1653 fps= 10 q=31.0 size=    6144kB time=00:00:26.80 bitrate=1878.1kbits/s speed=0.165x    frame= 1658 fps= 10 q=31.0 size=    6400kB time=00:00:26.88 bitrate=1950.2kbits/s speed=0.165x    frame= 1663 fps= 10 q=31.0 size=    6400kB time=00:00:26.96 bitrate=1944.2kbits/s speed=0.165x    frame= 1668 fps= 10 q=31.0 size=    6400kB time=00:00:27.05 bitrate=1938.2kbits/s speed=0.165x    frame= 1673 fps= 10 q=31.0 size=    6400kB time=00:00:27.13 bitrate=1932.3kbits/s speed=0.165x    frame= 1678 fps= 10 q=31.0 size=    6400kB time=00:00:27.21 bitrate=1926.4kbits/s speed=0.165x    frame= 1683 fps= 10 q=31.0 size=    6400kB time=00:00:27.30 bitrate=1920.5kbits/s speed=0.165x    frame= 1688 fps= 10 q=31.0 size=    6400kB time=00:00:27.38 bitrate=1914.6kbits/s speed=0.165x    frame= 1693 fps= 10 q=31.0 size=    6400kB time=00:00:27.46 bitrate=1908.8kbits/s speed=0.165x    frame= 1699 fps= 10 q=31.0 size=    6400kB time=00:00:27.56 bitrate=1901.9kbits/s speed=0.165x    frame= 1703 fps= 10 q=31.0 size=    6400kB time=00:00:27.63 bitrate=1897.3kbits/s speed=0.165x    frame= 1708 fps= 10 q=31.0 size=    6656kB time=00:00:27.71 bitrate=1967.3kbits/s speed=0.165x    frame= 1713 fps= 10 q=31.0 size=    6656kB time=00:00:27.80 bitrate=1961.4kbits/s speed=0.165x    frame= 1719 fps= 10 q=31.0 size=    6656kB time=00:00:27.90 bitrate=1954.3kbits/s speed=0.165x    frame= 1725 fps= 10 q=31.0 size=    6656kB time=00:00:28.00 bitrate=1947.4kbits/s speed=0.165x    frame= 1731 fps= 10 q=31.0 size=    6656kB time=00:00:28.10 bitrate=1940.4kbits/s speed=0.165x    frame= 1735 fps= 10 q=31.0 size=    6656kB time=00:00:28.16 bitrate=1935.8kbits/s speed=0.165x    frame= 1741 fps= 10 q=31.0 size=    6656kB time=00:00:28.26 bitrate=1929.0kbits/s speed=0.165x    frame= 1747 fps= 10 q=31.0 size=    6656kB time=00:00:28.36 bitrate=1922.2kbits/s speed=0.165x    frame= 1753 fps= 10 q=31.0 size=    6656kB time=00:00:28.46 bitrate=1915.4kbits/s speed=0.165x    frame= 1758 fps= 10 q=31.0 size=    6656kB time=00:00:28.55 bitrate=1909.8kbits/s speed=0.165x    frame= 1764 fps= 10 q=31.0 size=    6656kB time=00:00:28.65 bitrate=1903.2kbits/s speed=0.165x    frame= 1769 fps= 10 q=31.0 size=    6912kB time=00:00:28.73 bitrate=1970.7kbits/s speed=0.165x    frame= 1775 fps= 10 q=31.0 size=    6912kB time=00:00:28.83 bitrate=1963.8kbits/s speed=0.165x    frame= 1781 fps= 10 q=31.0 size=    6912kB time=00:00:28.93 bitrate=1957.0kbits/s speed=0.165x    frame= 1787 fps= 10 q=31.0 size=    6912kB time=00:00:29.03 bitrate=1950.3kbits/s speed=0.165x    frame= 1793 fps= 10 q=29.0 size=    6912kB time=00:00:29.13 bitrate=1943.6kbits/s speed=0.165x    frame= 1799 fps= 10 q=31.0 size=    6912kB time=00:00:29.23 bitrate=1936.9kbits/s speed=0.165x    frame= 1804 fps= 10 q=31.0 size=    6912kB time=00:00:29.31 bitrate=1931.4kbits/s speed=0.165x    frame= 1811 fps= 10 q=31.0 size=    6912kB time=00:00:29.43 bitrate=1923.8kbits/s speed=0.165x    frame= 1816 fps= 10 q=31.0 size=    6912kB time=00:00:29.51 bitrate=1918.4kbits/s speed=0.165x    frame= 1821 fps= 10 q=31.0 size=    6912kB time=00:00:29.60 bitrate=1913.0kbits/s speed=0.165x    frame= 1827 fps= 10 q=31.0 size=    6912kB time=00:00:29.70 bitrate=1906.5kbits/s speed=0.165x    frame= 1833 fps= 10 q=31.0 size=    6912kB time=00:00:29.80 bitrate=1900.1kbits/s speed=0.165x    frame= 1839 fps= 10 q=31.0 size=    7168kB time=00:00:29.90 bitrate=1963.9kbits/s speed=0.165x    frame= 1845 fps= 10 q=31.0 size=    7168kB time=00:00:30.00 bitrate=1957.4kbits/s speed=0.166x    frame= 1851 fps= 10 q=31.0 size=    7168kB time=00:00:30.10 bitrate=1950.8kbits/s speed=0.166x    frame= 1857 fps= 10 q=31.0 size=    7168kB time=00:00:30.20 bitrate=1944.4kbits/s speed=0.166x    frame= 1863 fps= 10 q=31.0 size=    7168kB time=00:00:30.30 bitrate=1938.0kbits/s speed=0.166x    frame= 1869 fps= 10 q=31.0 size=    7168kB time=00:00:30.40 bitrate=1931.6kbits/s speed=0.166x    frame= 1875 fps= 10 q=31.0 size=    7168kB time=00:00:30.50 bitrate=1925.3kbits/s speed=0.166x    frame= 1881 fps= 10 q=31.0 size=    7168kB time=00:00:30.60 bitrate=1919.0kbits/s speed=0.166x    frame= 1887 fps= 10 q=31.0 size=    7168kB time=00:00:30.70 bitrate=1912.7kbits/s speed=0.166x    frame= 1893 fps= 10 q=31.0 size=    7168kB time=00:00:30.80 bitrate=1906.5kbits/s speed=0.166x    frame= 1899 fps= 10 q=31.0 size=    7168kB time=00:00:30.90 bitrate=1900.3kbits/s speed=0.166x    frame= 1905 fps= 10 q=31.0 size=    7168kB time=00:00:31.00 bitrate=1894.2kbits/s speed=0.166x    frame= 1911 fps= 10 q=31.0 size=    7168kB time=00:00:31.10 bitrate=1888.1kbits/s speed=0.166x    frame= 1917 fps= 10 q=31.0 size=    7168kB time=00:00:31.20 bitrate=1882.1kbits/s speed=0.166x    frame= 1923 fps= 10 q=31.0 size=    7168kB time=00:00:31.30 bitrate=1876.1kbits/s speed=0.166x    frame= 1929 fps= 10 q=31.0 size=    7424kB time=00:00:31.40 bitrate=1936.9kbits/s speed=0.166x    frame= 1935 fps= 10 q=31.0 size=    7424kB time=00:00:31.50 bitrate=1930.7kbits/s speed=0.166x    frame= 1941 fps= 10 q=31.0 size=    7424kB time=00:00:31.60 bitrate=1924.6kbits/s speed=0.166x    frame= 1947 fps= 10 q=31.0 size=    7424kB time=00:00:31.70 bitrate=1918.5kbits/s speed=0.166x    frame= 1953 fps= 10 q=31.0 size=    7424kB time=00:00:31.80 bitrate=1912.5kbits/s speed=0.166x    frame= 1959 fps= 10 q=31.0 size=    7424kB time=00:00:31.90 bitrate=1906.5kbits/s speed=0.166x    frame= 1965 fps= 10 q=31.0 size=    7424kB time=00:00:32.00 bitrate=1900.6kbits/s speed=0.166x    frame= 1971 fps= 10 q=31.0 size=    7424kB time=00:00:32.10 bitrate=1894.6kbits/s speed=0.166x    frame= 1977 fps= 10 q=31.0 size=    7424kB time=00:00:32.20 bitrate=1888.7kbits/s speed=0.166x    frame= 1983 fps= 10 q=31.0 size=    7424kB time=00:00:32.30 bitrate=1882.9kbits/s speed=0.167x    frame= 1990 fps= 10 q=31.0 size=    7424kB time=00:00:32.41 bitrate=1876.1kbits/s speed=0.167x    frame= 1997 fps= 10 q=31.0 size=    7424kB time=00:00:32.53 bitrate=1869.4kbits/s speed=0.167x    frame= 2003 fps= 10 q=31.0 size=    7424kB time=00:00:32.63 bitrate=1863.7kbits/s speed=0.167x    frame= 2010 fps= 10 q=31.0 size=    7424kB time=00:00:32.75 bitrate=1857.0kbits/s speed=0.167x    frame= 2017 fps= 10 q=31.0 size=    7424kB time=00:00:32.86 bitrate=1850.4kbits/s speed=0.167x    frame= 2023 fps= 10 q=31.0 size=    7424kB time=00:00:32.96 bitrate=1844.8kbits/s speed=0.167x    frame= 2030 fps= 10 q=31.0 size=    7424kB time=00:00:33.08 bitrate=1838.3kbits/s speed=0.167x    frame= 2036 fps= 10 q=31.0 size=    7424kB time=00:00:33.18 bitrate=1832.8kbits/s speed=0.167x    frame= 2042 fps= 10 q=31.0 size=    7680kB time=00:00:33.28 bitrate=1890.3kbits/s speed=0.167x    frame= 2048 fps= 10 q=31.0 size=    7680kB time=00:00:33.38 bitrate=1884.6kbits/s speed=0.167x    frame= 2055 fps= 10 q=31.0 size=    7680kB time=00:00:33.50 bitrate=1878.1kbits/s speed=0.167x    frame= 2060 fps= 10 q=31.0 size=    7680kB time=00:00:33.58 bitrate=1873.4kbits/s speed=0.167x    frame= 2066 fps= 10 q=31.0 size=    7680kB time=00:00:33.68 bitrate=1867.8kbits/s speed=0.167x    frame= 2072 fps= 10 q=31.0 size=    7680kB time=00:00:33.78 bitrate=1862.3kbits/s speed=0.167x    frame= 2078 fps= 10 q=31.0 size=    7680kB time=00:00:33.88 bitrate=1856.8kbits/s speed=0.167x    frame= 2084 fps= 10 q=31.0 size=    7680kB time=00:00:33.98 bitrate=1851.3kbits/s speed=0.168x    frame= 2090 fps= 10 q=31.0 size=    7680kB time=00:00:34.08 bitrate=1845.9kbits/s speed=0.168x    frame= 2096 fps= 10 q=31.0 size=    7680kB time=00:00:34.18 bitrate=1840.5kbits/s speed=0.168x    frame= 2102 fps= 10 q=31.0 size=    7680kB time=00:00:34.28 bitrate=1835.1kbits/s speed=0.168x    frame= 2109 fps= 10 q=31.0 size=    7680kB time=00:00:34.40 bitrate=1828.9kbits/s speed=0.168x    frame= 2115 fps= 10 q=31.0 size=    7680kB time=00:00:34.50 bitrate=1823.6kbits/s speed=0.168x    frame= 2121 fps= 10 q=31.0 size=    7680kB time=00:00:34.60 bitrate=1818.3kbits/s speed=0.168x    frame= 2127 fps= 10 q=31.0 size=    7680kB time=00:00:34.70 bitrate=1813.1kbits/s speed=0.168x    frame= 2133 fps= 10 q=31.0 size=    7936kB time=00:00:34.80 bitrate=1868.2kbits/s speed=0.168x    frame= 2139 fps= 10 q=31.0 size=    7936kB time=00:00:34.90 bitrate=1862.8kbits/s speed=0.168x    frame= 2145 fps= 10 q=31.0 size=    7936kB time=00:00:35.00 bitrate=1857.5kbits/s speed=0.168x    frame= 2152 fps= 10 q=31.0 size=    7936kB time=00:00:35.11 bitrate=1851.3kbits/s speed=0.168x    frame= 2157 fps= 10 q=31.0 size=    7936kB time=00:00:35.20 bitrate=1846.9kbits/s speed=0.168x    frame= 2163 fps= 10 q=31.0 size=    7936kB time=00:00:35.30 bitrate=1841.7kbits/s speed=0.168x    frame= 2169 fps= 10 q=31.0 size=    7936kB time=00:00:35.40 bitrate=1836.5kbits/s speed=0.168x    frame= 2176 fps= 10 q=31.0 size=    7936kB time=00:00:35.51 bitrate=1830.5kbits/s speed=0.169x    frame= 2183 fps= 10 q=31.0 size=    7936kB time=00:00:35.63 bitrate=1824.5kbits/s speed=0.169x    frame= 2190 fps= 10 q=31.0 size=    7936kB time=00:00:35.75 bitrate=1818.5kbits/s speed=0.169x    frame= 2196 fps= 10 q=31.0 size=    7936kB time=00:00:35.85 bitrate=1813.4kbits/s speed=0.169x    frame= 2203 fps= 10 q=31.0 size=    7936kB time=00:00:35.96 bitrate=1807.6kbits/s speed=0.169x    frame= 2209 fps= 10 q=31.0 size=    7936kB time=00:00:36.06 bitrate=1802.6kbits/s speed=0.169x    frame= 2215 fps= 10 q=31.0 size=    7936kB time=00:00:36.16 bitrate=1797.6kbits/s speed=0.169x    frame= 2221 fps= 10 q=31.0 size=    7936kB time=00:00:36.26 bitrate=1792.6kbits/s speed=0.169x    frame= 2228 fps= 10 q=31.0 size=    7936kB time=00:00:36.38 bitrate=1786.9kbits/s speed=0.169x    frame= 2235 fps= 10 q=31.0 size=    7936kB time=00:00:36.50 bitrate=1781.2kbits/s speed=0.169x    frame= 2241 fps= 10 q=31.0 size=    7936kB time=00:00:36.60 bitrate=1776.3kbits/s speed=0.169x    frame= 2248 fps= 10 q=31.0 size=    7936kB time=00:00:36.71 bitrate=1770.6kbits/s speed=0.169x    frame= 2254 fps= 10 q=31.0 size=    7936kB time=00:00:36.81 bitrate=1765.8kbits/s speed=0.169x    frame= 2260 fps= 10 q=31.0 size=    7936kB time=00:00:36.91 bitrate=1761.0kbits/s speed=0.169x    frame= 2266 fps= 10 q=31.0 size=    7936kB time=00:00:37.01 bitrate=1756.3kbits/s speed=0.169x    frame= 2272 fps= 10 q=31.0 size=    8192kB time=00:00:37.11 bitrate=1808.1kbits/s speed=0.169x    frame= 2277 fps= 10 q=31.0 size=    8192kB time=00:00:37.20 bitrate=1804.0kbits/s speed=0.169x    frame= 2283 fps= 10 q=31.0 size=    8192kB time=00:00:37.30 bitrate=1799.2kbits/s speed=0.169x    frame= 2289 fps= 10 q=31.0 size=    8192kB time=00:00:37.40 bitrate=1794.4kbits/s speed=0.169x    frame= 2295 fps= 10 q=31.0 size=    8192kB time=00:00:37.50 bitrate=1789.6kbits/s speed=0.169x    frame= 2301 fps= 10 q=31.0 size=    8192kB time=00:00:37.60 bitrate=1784.8kbits/s speed=0.17x    frame= 2306 fps= 10 q=31.0 size=    8192kB time=00:00:37.68 bitrate=1780.9kbits/s speed=0.169x    frame= 2312 fps= 10 q=31.0 size=    8192kB time=00:00:37.78 bitrate=1776.2kbits/s speed=0.17x    frame= 2318 fps= 10 q=31.0 size=    8192kB time=00:00:37.88 bitrate=1771.5kbits/s speed=0.17x    frame= 2323 fps= 10 q=31.0 size=    8192kB time=00:00:37.96 bitrate=1767.6kbits/s speed=0.17x    frame= 2329 fps= 10 q=31.0 size=    8192kB time=00:00:38.06 bitrate=1762.9kbits/s speed=0.17x    frame= 2335 fps= 10 q=31.0 size=    8448kB time=00:00:38.16 bitrate=1813.3kbits/s speed=0.17x    frame= 2340 fps= 10 q=31.0 size=    8448kB time=00:00:38.25 bitrate=1809.3kbits/s speed=0.17x    frame= 2346 fps= 10 q=31.0 size=    8448kB time=00:00:38.35 bitrate=1804.6kbits/s speed=0.17x    frame= 2352 fps= 10 q=31.0 size=    8448kB time=00:00:38.45 bitrate=1799.9kbits/s speed=0.17x    frame= 2358 fps= 10 q=31.0 size=    8448kB time=00:00:38.55 bitrate=1795.2kbits/s speed=0.17x    frame= 2363 fps= 10 q=31.0 size=    8448kB time=00:00:38.63 bitrate=1791.4kbits/s speed=0.17x    frame= 2369 fps= 10 q=31.0 size=    8448kB time=00:00:38.73 bitrate=1786.7kbits/s speed=0.17x    frame= 2375 fps= 10 q=31.0 size=    8448kB time=00:00:38.83 bitrate=1782.1kbits/s speed=0.17x    frame= 2380 fps= 10 q=31.0 size=    8448kB time=00:00:38.91 bitrate=1778.3kbits/s speed=0.17x    frame= 2386 fps= 10 q=31.0 size=    8448kB time=00:00:39.01 bitrate=1773.8kbits/s speed=0.17x    frame= 2392 fps= 10 q=31.0 size=    8448kB time=00:00:39.11 bitrate=1769.2kbits/s speed=0.17x    frame= 2397 fps= 10 q=31.0 size=    8448kB time=00:00:39.20 bitrate=1765.5kbits/s speed=0.17x    frame= 2402 fps= 10 q=31.0 size=    8448kB time=00:00:39.28 bitrate=1761.7kbits/s speed=0.17x    frame= 2408 fps= 10 q=31.0 size=    8704kB time=00:00:39.38 bitrate=1810.5kbits/s speed=0.17x    frame= 2413 fps= 10 q=31.0 size=    8704kB time=00:00:39.46 bitrate=1806.7kbits/s speed=0.17x    frame= 2419 fps= 10 q=31.0 size=    8704kB time=00:00:39.56 bitrate=1802.1kbits/s speed=0.17x    frame= 2425 fps= 10 q=31.0 size=    8704kB time=00:00:39.66 bitrate=1797.6kbits/s speed=0.17x    frame= 2431 fps= 10 q=31.0 size=    8704kB time=00:00:39.76 bitrate=1793.0kbits/s speed=0.17x    frame= 2437 fps= 10 q=31.0 size=    8704kB time=00:00:39.86 bitrate=1788.5kbits/s speed=0.17x    frame= 2443 fps= 10 q=31.0 size=    8704kB time=00:00:39.96 bitrate=1784.1kbits/s speed=0.17x    frame= 2449 fps= 10 q=31.0 size=    8704kB time=00:00:40.06 bitrate=1779.6kbits/s speed=0.17x    frame= 2455 fps= 10 q=31.0 size=    8704kB time=00:00:40.16 bitrate=1775.2kbits/s speed=0.17x    frame= 2461 fps= 10 q=31.0 size=    8704kB time=00:00:40.26 bitrate=1770.8kbits/s speed=0.17x    frame= 2466 fps= 10 q=31.0 size=    8704kB time=00:00:40.35 bitrate=1767.1kbits/s speed=0.17x    frame= 2472 fps= 10 q=31.0 size=    8704kB time=00:00:40.45 bitrate=1762.8kbits/s speed=0.17x    frame= 2477 fps= 10 q=31.0 size=    8704kB time=00:00:40.53 bitrate=1759.1kbits/s speed=0.17x    frame= 2482 fps= 10 q=31.0 size=    8704kB time=00:00:40.61 bitrate=1755.5kbits/s speed=0.17x    frame= 2488 fps= 10 q=31.0 size=    8960kB time=00:00:40.71 bitrate=1802.7kbits/s speed=0.17x    frame= 2494 fps= 10 q=31.0 size=    8960kB time=00:00:40.81 bitrate=1798.3kbits/s speed=0.17x    frame= 2498 fps= 10 q=31.0 size=    8960kB time=00:00:40.88 bitrate=1795.4kbits/s speed=0.17x    frame= 2504 fps= 10 q=31.0 size=    8960kB time=00:00:40.98 bitrate=1791.0kbits/s speed=0.17x    frame= 2509 fps= 10 q=31.0 size=    8960kB time=00:00:41.06 bitrate=1787.4kbits/s speed=0.17x    frame= 2515 fps= 10 q=31.0 size=    8960kB time=00:00:41.16 bitrate=1783.0kbits/s speed=0.17x    frame= 2520 fps= 10 q=31.0 size=    8960kB time=00:00:41.25 bitrate=1779.4kbits/s speed=0.17x    frame= 2525 fps= 10 q=31.0 size=    8960kB time=00:00:41.33 bitrate=1775.8kbits/s speed=0.17x    frame= 2530 fps= 10 q=31.0 size=    8960kB time=00:00:41.41 bitrate=1772.2kbits/s speed=0.17x    frame= 2535 fps= 10 q=31.0 size=    8960kB time=00:00:41.50 bitrate=1768.7kbits/s speed=0.17x    frame= 2541 fps= 10 q=31.0 size=    8960kB time=00:00:41.60 bitrate=1764.4kbits/s speed=0.17x    frame= 2547 fps= 10 q=31.0 size=    8960kB time=00:00:41.70 bitrate=1760.2kbits/s speed=0.17x    frame= 2552 fps= 10 q=31.0 size=    8960kB time=00:00:41.78 bitrate=1756.7kbits/s speed=0.17x    frame= 2557 fps= 10 q=31.0 size=    8960kB time=00:00:41.86 bitrate=1753.2kbits/s speed=0.17x    frame= 2562 fps= 10 q=31.0 size=    9216kB time=00:00:41.95 bitrate=1799.7kbits/s speed=0.17x    frame= 2567 fps= 10 q=31.0 size=    9216kB time=00:00:42.03 bitrate=1796.1kbits/s speed=0.17x    frame= 2572 fps= 10 q=31.0 size=    9216kB time=00:00:42.11 bitrate=1792.6kbits/s speed=0.17x    frame= 2578 fps= 10 q=31.0 size=    9216kB time=00:00:42.21 bitrate=1788.3kbits/s speed=0.169x    frame= 2583 fps= 10 q=31.0 size=    9216kB time=00:00:42.30 bitrate=1784.8kbits/s speed=0.169x    frame= 2588 fps= 10 q=31.0 size=    9216kB time=00:00:42.38 bitrate=1781.3kbits/s speed=0.169x    frame= 2593 fps= 10 q=31.0 size=    9216kB time=00:00:42.46 bitrate=1777.8kbits/s speed=0.169x    frame= 2598 fps= 10 q=31.0 size=    9216kB time=00:00:42.55 bitrate=1774.3kbits/s speed=0.169x    frame= 2603 fps= 10 q=31.0 size=    9216kB time=00:00:42.63 bitrate=1770.9kbits/s speed=0.169x    frame= 2608 fps= 10 q=31.0 size=    9216kB time=00:00:42.71 bitrate=1767.4kbits/s speed=0.169x    frame= 2613 fps= 10 q=31.0 size=    9216kB time=00:00:42.80 bitrate=1764.0kbits/s speed=0.169x    frame= 2618 fps= 10 q=31.0 size=    9216kB time=00:00:42.88 bitrate=1760.5kbits/s speed=0.169x    frame= 2623 fps= 10 q=31.0 size=    9472kB time=00:00:42.96 bitrate=1805.9kbits/s speed=0.169x    frame= 2628 fps= 10 q=31.0 size=    9472kB time=00:00:43.05 bitrate=1802.4kbits/s speed=0.169x    frame= 2634 fps= 10 q=31.0 size=    9472kB time=00:00:43.15 bitrate=1798.3kbits/s speed=0.169x    frame= 2639 fps= 10 q=31.0 size=    9472kB time=00:00:43.23 bitrate=1794.8kbits/s speed=0.169x    frame= 2645 fps= 10 q=31.0 size=    9472kB time=00:00:43.33 bitrate=1790.7kbits/s speed=0.169x    frame= 2650 fps= 10 q=31.0 size=    9472kB time=00:00:43.41 bitrate=1787.2kbits/s speed=0.169x    frame= 2655 fps= 10 q=31.0 size=    9472kB time=00:00:43.50 bitrate=1783.8kbits/s speed=0.169x    frame= 2660 fps= 10 q=31.0 size=    9472kB time=00:00:43.58 bitrate=1780.4kbits/s speed=0.169x    frame= 2665 fps= 10 q=31.0 size=    9472kB time=00:00:43.66 bitrate=1777.0kbits/s speed=0.169x    frame= 2670 fps= 10 q=31.0 size=    9472kB time=00:00:43.75 bitrate=1773.6kbits/s speed=0.169x    frame= 2675 fps= 10 q=31.0 size=    9472kB time=00:00:43.83 bitrate=1770.2kbits/s speed=0.169x    frame= 2680 fps= 10 q=31.0 size=    9728kB time=00:00:43.91 bitrate=1814.6kbits/s speed=0.169x    frame= 2685 fps= 10 q=31.0 size=    9728kB time=00:00:44.00 bitrate=1811.2kbits/s speed=0.169x    frame= 2690 fps= 10 q=31.0 size=    9728kB time=00:00:44.08 bitrate=1807.8kbits/s speed=0.169x    frame= 2695 fps= 10 q=31.0 size=    9728kB time=00:00:44.16 bitrate=1804.3kbits/s speed=0.169x    frame= 2701 fps= 10 q=31.0 size=    9728kB time=00:00:44.26 bitrate=1800.3kbits/s speed=0.169x    frame= 2707 fps= 10 q=31.0 size=    9728kB time=00:00:44.36 bitrate=1796.2kbits/s speed=0.169x    frame= 2711 fps= 10 q=31.0 size=    9728kB time=00:00:44.43 bitrate=1793.5kbits/s speed=0.169x    frame= 2716 fps= 10 q=31.0 size=    9728kB time=00:00:44.51 bitrate=1790.2kbits/s speed=0.169x    frame= 2722 fps= 10 q=31.0 size=    9728kB time=00:00:44.61 bitrate=1786.1kbits/s speed=0.169x    frame= 2727 fps= 10 q=31.0 size=    9728kB time=00:00:44.70 bitrate=1782.8kbits/s speed=0.169x    frame= 2732 fps= 10 q=31.0 size=    9728kB time=00:00:44.78 bitrate=1779.5kbits/s speed=0.169x    frame= 2737 fps= 10 q=31.0 size=    9728kB time=00:00:44.86 bitrate=1776.2kbits/s speed=0.169x    frame= 2742 fps= 10 q=31.0 size=    9728kB time=00:00:44.95 bitrate=1772.9kbits/s speed=0.169x    frame= 2747 fps= 10 q=31.0 size=    9728kB time=00:00:45.03 bitrate=1769.6kbits/s speed=0.169x    frame= 2753 fps= 10 q=31.0 size=    9984kB time=00:00:45.13 bitrate=1812.2kbits/s speed=0.169x    frame= 2758 fps= 10 q=31.0 size=    9984kB time=00:00:45.21 bitrate=1808.8kbits/s speed=0.169x    [NULL @ 0x7fb2b909b500] Invalid maxval: 0
    Last message repeated 1 times
frame= 2763 fps= 10 q=31.0 size=    9984kB time=00:00:45.30 bitrate=1805.5kbits/s speed=0.169x    frame= 2768 fps= 10 q=31.0 size=    9984kB time=00:00:45.38 bitrate=1802.2kbits/s speed=0.169x    frame= 2774 fps= 10 q=31.0 size=    9984kB time=00:00:45.48 bitrate=1798.2kbits/s speed=0.169x    frame= 2779 fps= 10 q=31.0 size=    9984kB time=00:00:45.56 bitrate=1794.9kbits/s speed=0.169x    frame= 2785 fps= 10 q=31.0 size=    9984kB time=00:00:45.66 bitrate=1791.0kbits/s speed=0.169x    frame= 2790 fps= 10 q=31.0 size=    9984kB time=00:00:45.75 bitrate=1787.7kbits/s speed=0.169x    frame= 2795 fps= 10 q=31.0 size=    9984kB time=00:00:45.83 bitrate=1784.5kbits/s speed=0.169x    frame= 2801 fps= 10 q=31.0 size=    9984kB time=00:00:45.93 bitrate=1780.6kbits/s speed=0.169x    frame= 2806 fps= 10 q=31.0 size=    9984kB time=00:00:46.01 bitrate=1777.4kbits/s speed=0.169x    frame= 2812 fps= 10 q=31.0 size=    9984kB time=00:00:46.11 bitrate=1773.5kbits/s speed=0.169x    frame= 2818 fps= 10 q=31.0 size=   10240kB time=00:00:46.21 bitrate=1815.1kbits/s speed=0.169x    frame= 2824 fps= 10 q=31.0 size=   10240kB time=00:00:46.31 bitrate=1811.1kbits/s speed=0.169x    frame= 2829 fps= 10 q=31.0 size=   10240kB time=00:00:46.40 bitrate=1807.9kbits/s speed=0.169x    frame= 2834 fps= 10 q=31.0 size=   10240kB time=00:00:46.48 bitrate=1804.7kbits/s speed=0.169x    frame= 2840 fps= 10 q=31.0 size=   10240kB time=00:00:46.58 bitrate=1800.8kbits/s speed=0.169x    frame= 2846 fps= 10 q=31.0 size=   10240kB time=00:00:46.68 bitrate=1796.9kbits/s speed=0.169x    frame= 2852 fps= 10 q=31.0 size=   10240kB time=00:00:46.78 bitrate=1793.1kbits/s speed=0.169x    frame= 2856 fps= 10 q=31.0 size=   10240kB time=00:00:46.85 bitrate=1790.5kbits/s speed=0.169x    frame= 2862 fps= 10 q=31.0 size=   10240kB time=00:00:46.95 bitrate=1786.7kbits/s speed=0.169x    frame= 2867 fps= 10 q=31.0 size=   10240kB time=00:00:47.03 bitrate=1783.6kbits/s speed=0.169x    frame= 2872 fps= 10 q=31.0 size=   10240kB time=00:00:47.11 bitrate=1780.4kbits/s speed=0.169x    frame= 2877 fps= 10 q=31.0 size=   10240kB time=00:00:47.20 bitrate=1777.3kbits/s speed=0.169x    frame= 2882 fps= 10 q=31.0 size=   10240kB time=00:00:47.28 bitrate=1774.1kbits/s speed=0.169x    frame= 2887 fps= 10 q=31.0 size=   10496kB time=00:00:47.36 bitrate=1815.3kbits/s speed=0.169x    frame= 2893 fps= 10 q=31.0 size=   10496kB time=00:00:47.46 bitrate=1811.5kbits/s speed=0.169x    frame= 2897 fps= 10 q=31.0 size=   10496kB time=00:00:47.53 bitrate=1808.9kbits/s speed=0.169x    frame= 2902 fps= 10 q=31.0 size=   10496kB time=00:00:47.61 bitrate=1805.7kbits/s speed=0.169x    frame= 2907 fps= 10 q=31.0 size=   10496kB time=00:00:47.70 bitrate=1802.6kbits/s speed=0.169x    frame= 2913 fps= 10 q=31.0 size=   10496kB time=00:00:47.80 bitrate=1798.8kbits/s speed=0.169x    frame= 2918 fps= 10 q=31.0 size=   10496kB time=00:00:47.88 bitrate=1795.7kbits/s speed=0.168x    frame= 2923 fps= 10 q=31.0 size=   10496kB time=00:00:47.96 bitrate=1792.6kbits/s speed=0.168x    frame= 2928 fps= 10 q=31.0 size=   10496kB time=00:00:48.05 bitrate=1789.5kbits/s speed=0.168x    frame= 2934 fps= 10 q=31.0 size=   10496kB time=00:00:48.15 bitrate=1785.7kbits/s speed=0.168x    frame= 2939 fps= 10 q=31.0 size=   10496kB time=00:00:48.23 bitrate=1782.7kbits/s speed=0.168x    frame= 2944 fps= 10 q=31.0 size=   10496kB time=00:00:48.31 bitrate=1779.6kbits/s speed=0.168x    frame= 2949 fps= 10 q=31.0 size=   10752kB time=00:00:48.40 bitrate=1819.8kbits/s speed=0.168x    frame= 2954 fps= 10 q=31.0 size=   10752kB time=00:00:48.48 bitrate=1816.7kbits/s speed=0.168x    frame= 2960 fps= 10 q=31.0 size=   10752kB time=00:00:48.58 bitrate=1813.0kbits/s speed=0.168x    frame= 2965 fps= 10 q=31.0 size=   10752kB time=00:00:48.66 bitrate=1809.9kbits/s speed=0.168x    frame= 2970 fps= 10 q=31.0 size=   10752kB time=00:00:48.75 bitrate=1806.8kbits/s speed=0.168x    frame= 2975 fps= 10 q=31.0 size=   10752kB time=00:00:48.83 bitrate=1803.7kbits/s speed=0.168x    frame= 2980 fps= 10 q=31.0 size=   10752kB time=00:00:48.91 bitrate=1800.6kbits/s speed=0.168x    frame= 2985 fps= 10 q=31.0 size=   10752kB time=00:00:49.00 bitrate=1797.6kbits/s speed=0.168x    frame= 2991 fps= 10 q=31.0 size=   10752kB time=00:00:49.10 bitrate=1793.9kbits/s speed=0.168x    frame= 2996 fps= 10 q=31.0 size=   10752kB time=00:00:49.18 bitrate=1790.9kbits/s speed=0.168x    frame= 3001 fps= 10 q=31.0 size=   10752kB time=00:00:49.26 bitrate=1787.8kbits/s speed=0.168x    frame= 3006 fps= 10 q=31.0 size=   10752kB time=00:00:49.35 bitrate=1784.8kbits/s speed=0.168x    frame= 3011 fps= 10 q=31.0 size=   10752kB time=00:00:49.43 bitrate=1781.8kbits/s speed=0.168x    frame= 3016 fps= 10 q=31.0 size=   10752kB time=00:00:49.51 bitrate=1778.8kbits/s speed=0.168x    frame= 3021 fps= 10 q=31.0 size=   11008kB time=00:00:49.60 bitrate=1818.1kbits/s speed=0.168x    frame= 3026 fps= 10 q=31.0 size=   11008kB time=00:00:49.68 bitrate=1815.1kbits/s speed=0.168x    frame= 3031 fps= 10 q=31.0 size=   11008kB time=00:00:49.76 bitrate=1812.0kbits/s speed=0.168x    frame= 3036 fps= 10 q=31.0 size=   11008kB time=00:00:49.85 bitrate=1809.0kbits/s speed=0.168x    frame= 3041 fps= 10 q=31.0 size=   11008kB time=00:00:49.93 bitrate=1806.0kbits/s speed=0.168x    frame= 3047 fps= 10 q=31.0 size=   11008kB time=00:00:50.03 bitrate=1802.4kbits/s speed=0.168x    frame= 3051 fps= 10 q=31.0 size=   11008kB time=00:00:50.10 bitrate=1800.0kbits/s speed=0.168x    frame= 3056 fps= 10 q=31.0 size=   11008kB time=00:00:50.18 bitrate=1797.0kbits/s speed=0.168x    frame= 3061 fps= 10 q=31.0 size=   11008kB time=00:00:50.26 bitrate=1794.0kbits/s speed=0.168x    frame= 3066 fps= 10 q=31.0 size=   11008kB time=00:00:50.35 bitrate=1791.0kbits/s speed=0.168x    frame= 3071 fps= 10 q=31.0 size=   11008kB time=00:00:50.43 bitrate=1788.1kbits/s speed=0.168x    frame= 3076 fps= 10 q=31.0 size=   11264kB time=00:00:50.51 bitrate=1826.6kbits/s speed=0.168x    frame= 3081 fps= 10 q=31.0 size=   11264kB time=00:00:50.60 bitrate=1823.6kbits/s speed=0.168x    frame= 3086 fps= 10 q=31.0 size=   11264kB time=00:00:50.68 bitrate=1820.6kbits/s speed=0.168x    frame= 3091 fps= 10 q=31.0 size=   11264kB time=00:00:50.76 bitrate=1817.6kbits/s speed=0.168x    frame= 3096 fps= 10 q=31.0 size=   11264kB time=00:00:50.85 bitrate=1814.7kbits/s speed=0.168x    frame= 3100 fps= 10 q=31.0 size=   11264kB time=00:00:50.91 bitrate=1812.3kbits/s speed=0.168x    frame= 3105 fps= 10 q=31.0 size=   11264kB time=00:00:51.00 bitrate=1809.3kbits/s speed=0.168x    frame= 3110 fps= 10 q=31.0 size=   11264kB time=00:00:51.08 bitrate=1806.4kbits/s speed=0.168x    frame= 3115 fps= 10 q=31.0 size=   11264kB time=00:00:51.16 bitrate=1803.4kbits/s speed=0.168x    frame= 3120 fps= 10 q=31.0 size=   11264kB time=00:00:51.25 bitrate=1800.5kbits/s speed=0.168x    frame= 3125 fps= 10 q=31.0 size=   11264kB time=00:00:51.33 bitrate=1797.6kbits/s speed=0.168x    frame= 3130 fps= 10 q=31.0 size=   11264kB time=00:00:51.41 bitrate=1794.7kbits/s speed=0.168x    frame= 3135 fps= 10 q=31.0 size=   11520kB time=00:00:51.50 bitrate=1832.5kbits/s speed=0.168x    frame= 3140 fps= 10 q=31.0 size=   11520kB time=00:00:51.58 bitrate=1829.5kbits/s speed=0.168x    frame= 3145 fps= 10 q=31.0 size=   11520kB time=00:00:51.66 bitrate=1826.6kbits/s speed=0.168x    frame= 3150 fps= 10 q=31.0 size=   11520kB time=00:00:51.75 bitrate=1823.6kbits/s speed=0.168x    frame= 3155 fps= 10 q=31.0 size=   11520kB time=00:00:51.83 bitrate=1820.7kbits/s speed=0.168x    frame= 3160 fps= 10 q=31.0 size=   11520kB time=00:00:51.91 bitrate=1817.8kbits/s speed=0.168x    frame= 3165 fps= 10 q=31.0 size=   11520kB time=00:00:52.00 bitrate=1814.8kbits/s speed=0.168x    frame= 3170 fps= 10 q=31.0 size=   11520kB time=00:00:52.08 bitrate=1811.9kbits/s speed=0.168x    frame= 3175 fps= 10 q=31.0 size=   11520kB time=00:00:52.16 bitrate=1809.0kbits/s speed=0.168x    frame= 3180 fps= 10 q=31.0 size=   11520kB time=00:00:52.25 bitrate=1806.2kbits/s speed=0.168x    frame= 3186 fps= 10 q=31.0 size=   11520kB time=00:00:52.35 bitrate=1802.7kbits/s speed=0.168x    frame= 3191 fps= 10 q=31.0 size=   11776kB time=00:00:52.43 bitrate=1839.8kbits/s speed=0.167x    frame= 3196 fps= 10 q=31.0 size=   11776kB time=00:00:52.51 bitrate=1836.9kbits/s speed=0.167x    frame= 3201 fps= 10 q=31.0 size=   11776kB time=00:00:52.60 bitrate=1834.0kbits/s speed=0.167x    frame= 3206 fps= 10 q=31.0 size=   11776kB time=00:00:52.68 bitrate=1831.1kbits/s speed=0.167x    frame= 3211 fps= 10 q=31.0 size=   11776kB time=00:00:52.76 bitrate=1828.2kbits/s speed=0.167x    frame= 3216 fps= 10 q=31.0 size=   11776kB time=00:00:52.85 bitrate=1825.3kbits/s speed=0.167x    frame= 3222 fps= 10 q=31.0 size=   11776kB time=00:00:52.95 bitrate=1821.9kbits/s speed=0.167x    frame= 3227 fps= 10 q=31.0 size=   11776kB time=00:00:53.03 bitrate=1819.0kbits/s speed=0.167x    frame= 3232 fps= 10 q=31.0 size=   11776kB time=00:00:53.11 bitrate=1816.2kbits/s speed=0.167x    frame= 3237 fps= 10 q=31.0 size=   11776kB time=00:00:53.20 bitrate=1813.3kbits/s speed=0.167x    frame= 3242 fps= 10 q=31.0 size=   11776kB time=00:00:53.28 bitrate=1810.5kbits/s speed=0.167x    frame= 3247 fps= 10 q=31.0 size=   11776kB time=00:00:53.36 bitrate=1807.7kbits/s speed=0.167x    frame= 3252 fps= 10 q=31.0 size=   11776kB time=00:00:53.45 bitrate=1804.9kbits/s speed=0.167x    frame= 3257 fps= 10 q=31.0 size=   11776kB time=00:00:53.53 bitrate=1802.0kbits/s speed=0.167x    frame= 3262 fps= 10 q=31.0 size=   11776kB time=00:00:53.61 bitrate=1799.2kbits/s speed=0.167x    frame= 3267 fps= 10 q=31.0 size=   12032kB time=00:00:53.70 bitrate=1835.5kbits/s speed=0.167x    frame= 3272 fps= 10 q=31.0 size=   12032kB time=00:00:53.78 bitrate=1832.7kbits/s speed=0.167x    frame= 3277 fps= 10 q=31.0 size=   12032kB time=00:00:53.86 bitrate=1829.8kbits/s speed=0.167x    frame= 3282 fps= 10 q=31.0 size=   12032kB time=00:00:53.95 bitrate=1827.0kbits/s speed=0.167x    frame= 3287 fps= 10 q=31.0 size=   12032kB time=00:00:54.03 bitrate=1824.2kbits/s speed=0.167x    frame= 3293 fps= 10 q=29.0 size=   12032kB time=00:00:54.13 bitrate=1820.8kbits/s speed=0.167x    frame= 3297 fps= 10 q=31.0 size=   12032kB time=00:00:54.20 bitrate=1818.6kbits/s speed=0.167x    frame= 3303 fps= 10 q=31.0 size=   12032kB time=00:00:54.30 bitrate=1815.2kbits/s speed=0.167x    frame= 3308 fps= 10 q=31.0 size=   12032kB time=00:00:54.38 bitrate=1812.4kbits/s speed=0.167x    frame= 3313 fps= 10 q=31.0 size=   12032kB time=00:00:54.46 bitrate=1809.7kbits/s speed=0.167x    frame= 3318 fps= 10 q=31.0 size=   12288kB time=00:00:54.55 bitrate=1845.3kbits/s speed=0.167x    frame= 3323 fps= 10 q=31.0 size=   12288kB time=00:00:54.63 bitrate=1842.5kbits/s speed=0.167x    frame= 3328 fps= 10 q=31.0 size=   12288kB time=00:00:54.71 bitrate=1839.7kbits/s speed=0.167x    frame= 3333 fps= 10 q=31.0 size=   12288kB time=00:00:54.80 bitrate=1836.9kbits/s speed=0.167x    frame= 3338 fps= 10 q=31.0 size=   12288kB time=00:00:54.88 bitrate=1834.1kbits/s speed=0.167x    frame= 3343 fps= 10 q=31.0 size=   12288kB time=00:00:54.96 bitrate=1831.4kbits/s speed=0.167x    frame= 3348 fps= 10 q=31.0 size=   12288kB time=00:00:55.05 bitrate=1828.6kbits/s speed=0.167x    frame= 3353 fps= 10 q=31.0 size=   12288kB time=00:00:55.13 bitrate=1825.8kbits/s speed=0.167x    frame= 3359 fps= 10 q=31.0 size=   12288kB time=00:00:55.23 bitrate=1822.5kbits/s speed=0.167x    frame= 3364 fps= 10 q=31.0 size=   12288kB time=00:00:55.31 bitrate=1819.8kbits/s speed=0.167x    frame= 3369 fps= 10 q=31.0 size=   12288kB time=00:00:55.40 bitrate=1817.0kbits/s speed=0.167x    frame= 3374 fps= 10 q=31.0 size=   12288kB time=00:00:55.48 bitrate=1814.3kbits/s speed=0.167x    frame= 3380 fps= 10 q=31.0 size=   12288kB time=00:00:55.58 bitrate=1811.0kbits/s speed=0.167x    frame= 3385 fps= 10 q=31.0 size=   12544kB time=00:00:55.66 bitrate=1846.0kbits/s speed=0.167x    frame= 3390 fps= 10 q=31.0 size=   12544kB time=00:00:55.75 bitrate=1843.2kbits/s speed=0.167x    frame= 3395 fps= 10 q=31.0 size=   12544kB time=00:00:55.83 bitrate=1840.5kbits/s speed=0.167x    frame= 3400 fps= 10 q=31.0 size=   12544kB time=00:00:55.91 bitrate=1837.7kbits/s speed=0.167x    frame= 3406 fps= 10 q=31.0 size=   12544kB time=00:00:56.01 bitrate=1834.5kbits/s speed=0.167x    frame= 3410 fps= 10 q=31.0 size=   12544kB time=00:00:56.08 bitrate=1832.3kbits/s speed=0.167x    frame= 3416 fps= 10 q=31.0 size=   12544kB time=00:00:56.18 bitrate=1829.0kbits/s speed=0.167x    frame= 3422 fps= 10 q=31.0 size=   12544kB time=00:00:56.28 bitrate=1825.8kbits/s speed=0.167x    frame= 3427 fps= 10 q=31.0 size=   12544kB time=00:00:56.36 bitrate=1823.1kbits/s speed=0.167x    frame= 3433 fps= 10 q=31.0 size=   12544kB time=00:00:56.46 bitrate=1819.8kbits/s speed=0.167x    frame= 3438 fps= 10 q=31.0 size=   12544kB time=00:00:56.55 bitrate=1817.2kbits/s speed=0.167x    frame= 3443 fps= 10 q=31.0 size=   12544kB time=00:00:56.63 bitrate=1814.5kbits/s speed=0.167x    frame= 3449 fps= 10 q=31.0 size=   12544kB time=00:00:56.73 bitrate=1811.3kbits/s speed=0.167x    frame= 3453 fps= 10 q=31.0 size=   12544kB time=00:00:56.80 bitrate=1809.2kbits/s speed=0.167x    frame= 3459 fps= 10 q=31.0 size=   12544kB time=00:00:56.90 bitrate=1806.0kbits/s speed=0.167x    frame= 3465 fps= 10 q=31.0 size=   12544kB time=00:00:57.00 bitrate=1802.8kbits/s speed=0.167x    frame= 3471 fps= 10 q=31.0 size=   12800kB time=00:00:57.10 bitrate=1836.4kbits/s speed=0.167x    frame= 3477 fps= 10 q=31.0 size=   12800kB time=00:00:57.20 bitrate=1833.2kbits/s speed=0.167x    frame= 3481 fps= 10 q=31.0 size=   12800kB time=00:00:57.26 bitrate=1831.0kbits/s speed=0.167x    frame= 3486 fps= 10 q=31.0 size=   12800kB time=00:00:57.35 bitrate=1828.4kbits/s speed=0.167x    frame= 3492 fps= 10 q=31.0 size=   12800kB time=00:00:57.45 bitrate=1825.2kbits/s speed=0.167x    frame= 3497 fps= 10 q=31.0 size=   12800kB time=00:00:57.53 bitrate=1822.6kbits/s speed=0.167x    frame= 3502 fps= 10 q=31.0 size=   12800kB time=00:00:57.61 bitrate=1819.9kbits/s speed=0.167x    frame= 3507 fps= 10 q=31.0 size=   12800kB time=00:00:57.70 bitrate=1817.3kbits/s speed=0.167x    frame= 3512 fps= 10 q=31.0 size=   12800kB time=00:00:57.78 bitrate=1814.7kbits/s speed=0.167x    frame= 3517 fps= 10 q=31.0 size=   12800kB time=00:00:57.86 bitrate=1812.1kbits/s speed=0.167x    frame= 3522 fps= 10 q=31.0 size=   12800kB time=00:00:57.95 bitrate=1809.5kbits/s speed=0.167x    frame= 3528 fps= 10 q=31.0 size=   12800kB time=00:00:58.05 bitrate=1806.3kbits/s speed=0.167x    frame= 3533 fps= 10 q=31.0 size=   12800kB time=00:00:58.13 bitrate=1803.7kbits/s speed=0.167x    frame= 3538 fps= 10 q=31.0 size=   12800kB time=00:00:58.21 bitrate=1801.2kbits/s speed=0.167x    frame= 3543 fps= 10 q=29.0 size=   13056kB time=00:00:58.30 bitrate=1834.6kbits/s speed=0.167x    frame= 3549 fps= 10 q=31.0 size=   13056kB time=00:00:58.40 bitrate=1831.4kbits/s speed=0.167x    frame= 3554 fps= 10 q=31.0 size=   13056kB time=00:00:58.48 bitrate=1828.8kbits/s speed=0.167x    frame= 3559 fps= 10 q=31.0 size=   13056kB time=00:00:58.56 bitrate=1826.2kbits/s speed=0.167x    frame= 3565 fps= 10 q=31.0 size=   13056kB time=00:00:58.66 bitrate=1823.1kbits/s speed=0.167x    frame= 3571 fps= 10 q=31.0 size=   13056kB time=00:00:58.76 bitrate=1820.0kbits/s speed=0.167x    frame= 3576 fps= 10 q=31.0 size=   13056kB time=00:00:58.85 bitrate=1817.4kbits/s speed=0.167x    frame= 3582 fps= 10 q=31.0 size=   13056kB time=00:00:58.95 bitrate=1814.3kbits/s speed=0.167x    frame= 3587 fps= 10 q=31.0 size=   13056kB time=00:00:59.03 bitrate=1811.8kbits/s speed=0.167x    frame= 3592 fps= 10 q=31.0 size=   13056kB time=00:00:59.11 bitrate=1809.2kbits/s speed=0.167x    frame= 3597 fps= 10 q=31.0 size=   13056kB time=00:00:59.20 bitrate=1806.7kbits/s speed=0.167x    frame= 3603 fps= 10 q=31.0 size=   13056kB time=00:00:59.30 bitrate=1803.6kbits/s speed=0.167x    frame= 3608 fps= 10 q=31.0 size=   13056kB time=00:00:59.38 bitrate=1801.1kbits/s speed=0.167x    frame= 3613 fps= 10 q=31.0 size=   13056kB time=00:00:59.46 bitrate=1798.6kbits/s speed=0.167x    frame= 3619 fps= 10 q=31.0 size=   13056kB time=00:00:59.56 bitrate=1795.6kbits/s speed=0.167x    frame= 3624 fps= 10 q=31.0 size=   13056kB time=00:00:59.65 bitrate=1793.0kbits/s speed=0.167x    frame= 3629 fps= 10 q=31.0 size=   13056kB time=00:00:59.73 bitrate=1790.5kbits/s speed=0.167x    frame= 3635 fps= 10 q=31.0 size=   13312kB time=00:00:59.83 bitrate=1822.6kbits/s speed=0.167x    frame= 3640 fps= 10 q=31.0 size=   13312kB time=00:00:59.91 bitrate=1820.1kbits/s speed=0.167x    frame= 3645 fps= 10 q=31.0 size=   13312kB time=00:01:00.00 bitrate=1817.5kbits/s speed=0.167x    frame= 3650 fps= 10 q=31.0 size=   13312kB time=00:01:00.08 bitrate=1815.0kbits/s speed=0.167x    frame= 3656 fps= 10 q=31.0 size=   13312kB time=00:01:00.18 bitrate=1812.0kbits/s speed=0.167x    frame= 3660 fps= 10 q=31.0 size=   13312kB time=00:01:00.25 bitrate=1810.0kbits/s speed=0.167x    frame= 3665 fps= 10 q=31.0 size=   13312kB time=00:01:00.33 bitrate=1807.5kbits/s speed=0.167x    frame= 3670 fps= 10 q=31.0 size=   13312kB time=00:01:00.41 bitrate=1805.0kbits/s speed=0.167x    frame= 3675 fps= 10 q=31.0 size=   13312kB time=00:01:00.50 bitrate=1802.5kbits/s speed=0.167x    frame= 3680 fps= 10 q=31.0 size=   13312kB time=00:01:00.58 bitrate=1800.0kbits/s speed=0.167x    frame= 3685 fps= 10 q=31.0 size=   13312kB time=00:01:00.66 bitrate=1797.6kbits/s speed=0.167x    frame= 3690 fps= 10 q=31.0 size=   13312kB time=00:01:00.75 bitrate=1795.1kbits/s speed=0.167x    frame= 3695 fps= 10 q=31.0 size=   13312kB time=00:01:00.83 bitrate=1792.6kbits/s speed=0.167x    frame= 3700 fps= 10 q=31.0 size=   13312kB time=00:01:00.91 bitrate=1790.2kbits/s speed=0.167x    frame= 3705 fps= 10 q=31.0 size=   13568kB time=00:01:01.00 bitrate=1822.1kbits/s speed=0.167x    frame= 3710 fps= 10 q=31.0 size=   13568kB time=00:01:01.08 bitrate=1819.6kbits/s speed=0.167x    frame= 3715 fps= 10 q=31.0 size=   13568kB time=00:01:01.16 bitrate=1817.2kbits/s speed=0.167x    frame= 3720 fps= 10 q=31.0 size=   13568kB time=00:01:01.25 bitrate=1814.7kbits/s speed=0.167x    frame= 3725 fps= 10 q=31.0 size=   13568kB time=00:01:01.33 bitrate=1812.2kbits/s speed=0.167x    frame= 3730 fps= 10 q=31.0 size=   13568kB time=00:01:01.41 bitrate=1809.8kbits/s speed=0.167x    frame= 3735 fps= 10 q=31.0 size=   13568kB time=00:01:01.50 bitrate=1807.3kbits/s speed=0.167x    frame= 3740 fps= 10 q=31.0 size=   13568kB time=00:01:01.58 bitrate=1804.9kbits/s speed=0.167x    frame= 3745 fps= 10 q=31.0 size=   13568kB time=00:01:01.66 bitrate=1802.4kbits/s speed=0.166x    frame= 3750 fps= 10 q=31.0 size=   13568kB time=00:01:01.75 bitrate=1800.0kbits/s speed=0.166x    frame= 3755 fps= 10 q=31.0 size=   13568kB time=00:01:01.83 bitrate=1797.6kbits/s speed=0.166x    frame= 3760 fps= 10 q=31.0 size=   13568kB time=00:01:01.91 bitrate=1795.1kbits/s speed=0.166x    frame= 3765 fps= 10 q=31.0 size=   13824kB time=00:01:02.00 bitrate=1826.6kbits/s speed=0.166x    frame= 3770 fps= 10 q=31.0 size=   13824kB time=00:01:02.08 bitrate=1824.1kbits/s speed=0.166x    frame= 3775 fps= 10 q=31.0 size=   13824kB time=00:01:02.16 bitrate=1821.7kbits/s speed=0.166x    frame= 3782 fps= 10 q=31.0 size=   13824kB time=00:01:02.28 bitrate=1818.2kbits/s speed=0.166x    frame= 3787 fps= 10 q=31.0 size=   13824kB time=00:01:02.36 bitrate=1815.8kbits/s speed=0.166x    frame= 3792 fps= 10 q=31.0 size=   13824kB time=00:01:02.45 bitrate=1813.4kbits/s speed=0.166x    frame= 3798 fps= 10 q=31.0 size=   13824kB time=00:01:02.55 bitrate=1810.5kbits/s speed=0.166x    frame= 3804 fps= 10 q=31.0 size=   13824kB time=00:01:02.65 bitrate=1807.6kbits/s speed=0.166x    frame= 3810 fps= 10 q=31.0 size=   13824kB time=00:01:02.75 bitrate=1804.7kbits/s speed=0.166x    frame= 3815 fps= 10 q=31.0 size=   13824kB time=00:01:02.83 bitrate=1802.3kbits/s speed=0.166x    frame= 3820 fps= 10 q=31.0 size=   14080kB time=00:01:02.91 bitrate=1833.3kbits/s speed=0.166x    frame= 3825 fps= 10 q=31.0 size=   14080kB time=00:01:03.00 bitrate=1830.9kbits/s speed=0.166x    frame= 3831 fps= 10 q=31.0 size=   14080kB time=00:01:03.10 bitrate=1827.9kbits/s speed=0.166x    frame= 3836 fps= 10 q=31.0 size=   14080kB time=00:01:03.18 bitrate=1825.5kbits/s speed=0.166x    frame= 3842 fps= 10 q=31.0 size=   14080kB time=00:01:03.28 bitrate=1822.7kbits/s speed=0.166x    frame= 3847 fps= 10 q=31.0 size=   14080kB time=00:01:03.36 bitrate=1820.3kbits/s speed=0.166x    frame= 3853 fps= 10 q=31.0 size=   14080kB time=00:01:03.46 bitrate=1817.4kbits/s speed=0.166x    frame= 3858 fps= 10 q=31.0 size=   14080kB time=00:01:03.55 bitrate=1815.0kbits/s speed=0.166x    frame= 3864 fps= 10 q=31.0 size=   14080kB time=00:01:03.65 bitrate=1812.2kbits/s speed=0.166x    frame= 3869 fps= 10 q=31.0 size=   14080kB time=00:01:03.73 bitrate=1809.8kbits/s speed=0.166x    frame= 3875 fps= 10 q=31.0 size=   14080kB time=00:01:03.83 bitrate=1806.9kbits/s speed=0.166x    frame= 3880 fps= 10 q=31.0 size=   14080kB time=00:01:03.91 bitrate=1804.6kbits/s speed=0.166x    frame= 3886 fps= 10 q=31.0 size=   14080kB time=00:01:04.01 bitrate=1801.8kbits/s speed=0.167x    frame= 3891 fps= 10 q=31.0 size=   14336kB time=00:01:04.10 bitrate=1832.1kbits/s speed=0.166x    frame= 3897 fps= 10 q=31.0 size=   14336kB time=00:01:04.20 bitrate=1829.3kbits/s speed=0.166x    frame= 3903 fps= 10 q=31.0 size=   14336kB time=00:01:04.30 bitrate=1826.5kbits/s speed=0.167x    frame= 3908 fps= 10 q=31.0 size=   14336kB time=00:01:04.38 bitrate=1824.1kbits/s speed=0.167x    frame= 3914 fps= 10 q=31.0 size=   14336kB time=00:01:04.48 bitrate=1821.3kbits/s speed=0.167x    frame= 3920 fps= 10 q=31.0 size=   14336kB time=00:01:04.58 bitrate=1818.4kbits/s speed=0.167x    frame= 3926 fps= 10 q=31.0 size=   14336kB time=00:01:04.68 bitrate=1815.6kbits/s speed=0.167x    frame= 3932 fps= 10 q=31.0 size=   14336kB time=00:01:04.78 bitrate=1812.8kbits/s speed=0.167x    frame= 3937 fps= 10 q=31.0 size=   14336kB time=00:01:04.86 bitrate=1810.5kbits/s speed=0.167x    frame= 3942 fps= 10 q=31.0 size=   14336kB time=00:01:04.95 bitrate=1808.2kbits/s speed=0.167x    frame= 3948 fps= 10 q=31.0 size=   14336kB time=00:01:05.05 bitrate=1805.4kbits/s speed=0.167x    frame= 3953 fps= 10 q=31.0 size=   14336kB time=00:01:05.13 bitrate=1803.1kbits/s speed=0.167x    frame= 3959 fps= 10 q=31.0 size=   14336kB time=00:01:05.23 bitrate=1800.3kbits/s speed=0.167x    frame= 3964 fps= 10 q=31.0 size=   14336kB time=00:01:05.31 bitrate=1798.0kbits/s speed=0.167x    frame= 3970 fps= 10 q=31.0 size=   14592kB time=00:01:05.41 bitrate=1827.3kbits/s speed=0.167x    frame= 3976 fps= 10 q=31.0 size=   14592kB time=00:01:05.51 bitrate=1824.5kbits/s speed=0.167x    frame= 3982 fps= 10 q=31.0 size=   14592kB time=00:01:05.61 bitrate=1821.8kbits/s speed=0.167x    frame= 3987 fps= 10 q=31.0 size=   14592kB time=00:01:05.70 bitrate=1819.5kbits/s speed=0.167x    frame= 3993 fps= 10 q=31.0 size=   14592kB time=00:01:05.80 bitrate=1816.7kbits/s speed=0.167x    frame= 3999 fps= 10 q=31.0 size=   14592kB time=00:01:05.90 bitrate=1813.9kbits/s speed=0.167x    frame= 4004 fps= 10 q=31.0 size=   14592kB time=00:01:05.98 bitrate=1811.6kbits/s speed=0.167x    frame= 4009 fps= 10 q=31.0 size=   14592kB time=00:01:06.06 bitrate=1809.4kbits/s speed=0.167x    frame= 4014 fps= 10 q=31.0 size=   14592kB time=00:01:06.15 bitrate=1807.1kbits/s speed=0.167x    frame= 4020 fps= 10 q=31.0 size=   14592kB time=00:01:06.25 bitrate=1804.3kbits/s speed=0.167x    frame= 4026 fps= 10 q=31.0 size=   14592kB time=00:01:06.35 bitrate=1801.6kbits/s speed=0.167x    frame= 4031 fps= 10 q=31.0 size=   14592kB time=00:01:06.43 bitrate=1799.4kbits/s speed=0.167x    frame= 4036 fps= 10 q=31.0 size=   14848kB time=00:01:06.51 bitrate=1828.6kbits/s speed=0.167x    frame= 4042 fps= 10 q=31.0 size=   14848kB time=00:01:06.61 bitrate=1825.9kbits/s speed=0.167x    frame= 4048 fps= 10 q=31.0 size=   14848kB time=00:01:06.71 bitrate=1823.2kbits/s speed=0.167x    frame= 4054 fps= 10 q=31.0 size=   14848kB time=00:01:06.81 bitrate=1820.4kbits/s speed=0.167x    frame= 4059 fps= 10 q=31.0 size=   14848kB time=00:01:06.90 bitrate=1818.2kbits/s speed=0.167x    frame= 4065 fps= 10 q=31.0 size=   14848kB time=00:01:07.00 bitrate=1815.4kbits/s speed=0.167x    frame= 4070 fps= 10 q=31.0 size=   14848kB time=00:01:07.08 bitrate=1813.2kbits/s speed=0.167x    frame= 4075 fps= 10 q=31.0 size=   14848kB time=00:01:07.16 bitrate=1810.9kbits/s speed=0.167x    frame= 4081 fps= 10 q=31.0 size=   14848kB time=00:01:07.26 bitrate=1808.3kbits/s speed=0.167x    frame= 4087 fps= 10 q=31.0 size=   14848kB time=00:01:07.36 bitrate=1805.6kbits/s speed=0.167x    frame= 4093 fps= 10 q=31.0 size=   14848kB time=00:01:07.46 bitrate=1802.9kbits/s speed=0.167x    frame= 4098 fps= 10 q=31.0 size=   15104kB time=00:01:07.55 bitrate=1831.7kbits/s speed=0.167x    frame= 4104 fps= 10 q=31.0 size=   15104kB time=00:01:07.65 bitrate=1829.0kbits/s speed=0.167x    frame= 4109 fps= 10 q=31.0 size=   15104kB time=00:01:07.73 bitrate=1826.8kbits/s speed=0.167x    frame= 4114 fps= 10 q=31.0 size=   15104kB time=00:01:07.81 bitrate=1824.5kbits/s speed=0.167x    frame= 4120 fps= 10 q=31.0 size=   15104kB time=00:01:07.91 bitrate=1821.8kbits/s speed=0.167x    frame= 4126 fps= 10 q=31.0 size=   15104kB time=00:01:08.01 bitrate=1819.1kbits/s speed=0.167x    frame= 4131 fps= 10 q=31.0 size=   15104kB time=00:01:08.10 bitrate=1816.9kbits/s speed=0.167x    frame= 4136 fps= 10 q=31.0 size=   15104kB time=00:01:08.18 bitrate=1814.7kbits/s speed=0.167x    frame= 4142 fps= 10 q=31.0 size=   15104kB time=00:01:08.28 bitrate=1812.0kbits/s speed=0.167x    frame= 4147 fps= 10 q=31.0 size=   15104kB time=00:01:08.36 bitrate=1809.8kbits/s speed=0.167x    frame= 4153 fps= 10 q=31.0 size=   15104kB time=00:01:08.46 bitrate=1807.2kbits/s speed=0.167x    frame= 4159 fps= 10 q=31.0 size=   15104kB time=00:01:08.56 bitrate=1804.6kbits/s speed=0.167x    frame= 4164 fps= 10 q=31.0 size=   15104kB time=00:01:08.65 bitrate=1802.4kbits/s speed=0.167x    frame= 4169 fps= 10 q=31.0 size=   15360kB time=00:01:08.73 bitrate=1830.7kbits/s speed=0.167x    frame= 4175 fps= 10 q=31.0 size=   15360kB time=00:01:08.83 bitrate=1828.0kbits/s speed=0.167x    frame= 4181 fps= 10 q=31.0 size=   15360kB time=00:01:08.93 bitrate=1825.4kbits/s speed=0.167x    frame= 4187 fps= 10 q=31.0 size=   15360kB time=00:01:09.03 bitrate=1822.7kbits/s speed=0.167x    frame= 4192 fps= 10 q=31.0 size=   15360kB time=00:01:09.11 bitrate=1820.5kbits/s speed=0.167x    frame= 4198 fps= 10 q=31.0 size=   15360kB time=00:01:09.21 bitrate=1817.9kbits/s speed=0.167x    frame= 4203 fps= 10 q=31.0 size=   15360kB time=00:01:09.30 bitrate=1815.7kbits/s speed=0.167x    frame= 4209 fps= 10 q=31.0 size=   15360kB time=00:01:09.40 bitrate=1813.1kbits/s speed=0.167x    frame= 4215 fps= 10 q=31.0 size=   15360kB time=00:01:09.50 bitrate=1810.5kbits/s speed=0.167x    frame= 4220 fps= 10 q=31.0 size=   15360kB time=00:01:09.58 bitrate=1808.3kbits/s speed=0.167x    frame= 4226 fps= 10 q=31.0 size=   15360kB time=00:01:09.68 bitrate=1805.7kbits/s speed=0.167x    frame= 4232 fps= 10 q=31.0 size=   15616kB time=00:01:09.78 bitrate=1833.2kbits/s speed=0.167x    frame= 4237 fps= 10 q=31.0 size=   15616kB time=00:01:09.86 bitrate=1831.0kbits/s speed=0.167x    frame= 4242 fps= 10 q=31.0 size=   15616kB time=00:01:09.95 bitrate=1828.8kbits/s speed=0.167x    frame= 4247 fps= 10 q=31.0 size=   15616kB time=00:01:10.03 bitrate=1826.7kbits/s speed=0.167x    frame= 4253 fps= 10 q=31.0 size=   15616kB time=00:01:10.13 bitrate=1824.0kbits/s speed=0.167x    frame= 4258 fps= 10 q=31.0 size=   15616kB time=00:01:10.21 bitrate=1821.9kbits/s speed=0.167x    frame= 4263 fps= 10 q=31.0 size=   15616kB time=00:01:10.30 bitrate=1819.7kbits/s speed=0.167x    frame= 4268 fps= 10 q=31.0 size=   15616kB time=00:01:10.38 bitrate=1817.6kbits/s speed=0.167x    frame= 4274 fps= 10 q=31.0 size=   15616kB time=00:01:10.48 bitrate=1815.0kbits/s speed=0.167x    frame= 4280 fps= 10 q=31.0 size=   15616kB time=00:01:10.58 bitrate=1812.4kbits/s speed=0.167x    frame= 4286 fps= 10 q=31.0 size=   15616kB time=00:01:10.68 bitrate=1809.9kbits/s speed=0.167x    frame= 4292 fps= 10 q=31.0 size=   15616kB time=00:01:10.78 bitrate=1807.3kbits/s speed=0.167x    frame= 4298 fps= 10 q=31.0 size=   15872kB time=00:01:10.88 bitrate=1834.3kbits/s speed=0.167x    frame= 4304 fps= 10 q=31.0 size=   15872kB time=00:01:10.98 bitrate=1831.7kbits/s speed=0.167x    frame= 4310 fps= 10 q=31.0 size=   15872kB time=00:01:11.08 bitrate=1829.2kbits/s speed=0.167x    frame= 4316 fps= 10 q=31.0 size=   15872kB time=00:01:11.18 bitrate=1826.6kbits/s speed=0.167x    frame= 4322 fps= 10 q=31.0 size=   15872kB time=00:01:11.28 bitrate=1824.0kbits/s speed=0.167x    frame= 4327 fps= 10 q=31.0 size=   15872kB time=00:01:11.36 bitrate=1821.9kbits/s speed=0.167x    frame= 4333 fps= 10 q=31.0 size=   15872kB time=00:01:11.46 bitrate=1819.4kbits/s speed=0.167x    frame= 4338 fps= 10 q=31.0 size=   15872kB time=00:01:11.55 bitrate=1817.2kbits/s speed=0.167x    frame= 4343 fps= 10 q=31.0 size=   15872kB time=00:01:11.63 bitrate=1815.1kbits/s speed=0.167x    frame= 4349 fps= 10 q=31.0 size=   15872kB time=00:01:11.73 bitrate=1812.6kbits/s speed=0.167x    frame= 4355 fps= 10 q=31.0 size=   15872kB time=00:01:11.83 bitrate=1810.1kbits/s speed=0.167x    frame= 4361 fps= 10 q=31.0 size=   15872kB time=00:01:11.93 bitrate=1807.6kbits/s speed=0.167x    frame= 4367 fps= 10 q=31.0 size=   15872kB time=00:01:12.03 bitrate=1805.0kbits/s speed=0.167x    frame= 4373 fps= 10 q=31.0 size=   16128kB time=00:01:12.13 bitrate=1831.6kbits/s speed=0.167x    frame= 4378 fps= 10 q=31.0 size=   16128kB time=00:01:12.21 bitrate=1829.5kbits/s speed=0.167x    frame= 4384 fps= 10 q=31.0 size=   16128kB time=00:01:12.31 bitrate=1827.0kbits/s speed=0.167x    frame= 4390 fps= 10 q=31.0 size=   16128kB time=00:01:12.41 bitrate=1824.5kbits/s speed=0.167x    frame= 4396 fps= 10 q=31.0 size=   16128kB time=00:01:12.51 bitrate=1821.9kbits/s speed=0.167x    frame= 4402 fps= 10 q=31.0 size=   16128kB time=00:01:12.61 bitrate=1819.4kbits/s speed=0.167x    frame= 4409 fps= 10 q=31.0 size=   16128kB time=00:01:12.73 bitrate=1816.5kbits/s speed=0.167x    frame= 4415 fps= 10 q=31.0 size=   16128kB time=00:01:12.83 bitrate=1814.0kbits/s speed=0.167x    frame= 4421 fps= 10 q=31.0 size=   16128kB time=00:01:12.93 bitrate=1811.5kbits/s speed=0.167x    frame= 4426 fps= 10 q=31.0 size=   16128kB time=00:01:13.01 bitrate=1809.5kbits/s speed=0.167x    frame= 4431 fps= 10 q=31.0 size=   16128kB time=00:01:13.10 bitrate=1807.4kbits/s speed=0.167x    frame= 4436 fps= 10 q=31.0 size=   16128kB time=00:01:13.18 bitrate=1805.3kbits/s speed=0.167x    frame= 4442 fps= 10 q=31.0 size=   16128kB time=00:01:13.28 bitrate=1802.9kbits/s speed=0.167x    frame= 4448 fps= 10 q=31.0 size=   16128kB time=00:01:13.38 bitrate=1800.4kbits/s speed=0.167x    frame= 4454 fps= 10 q=31.0 size=   16128kB time=00:01:13.48 bitrate=1798.0kbits/s speed=0.167x    frame= 4459 fps= 10 q=31.0 size=   16384kB time=00:01:13.56 bitrate=1824.4kbits/s speed=0.167x    frame= 4464 fps= 10 q=31.0 size=   16384kB time=00:01:13.65 bitrate=1822.4kbits/s speed=0.167x    frame= 4470 fps= 10 q=31.0 size=   16384kB time=00:01:13.75 bitrate=1819.9kbits/s speed=0.167x    frame= 4476 fps= 10 q=31.0 size=   16384kB time=00:01:13.85 bitrate=1817.4kbits/s speed=0.167x    frame= 4481 fps= 10 q=31.0 size=   16384kB time=00:01:13.93 bitrate=1815.4kbits/s speed=0.167x    frame= 4486 fps= 10 q=31.0 size=   16384kB time=00:01:14.01 bitrate=1813.3kbits/s speed=0.167x    frame= 4492 fps= 10 q=31.0 size=   16384kB time=00:01:14.11 bitrate=1810.9kbits/s speed=0.167x    frame= 4497 fps= 10 q=31.0 size=   16384kB time=00:01:14.20 bitrate=1808.9kbits/s speed=0.167x    frame= 4502 fps= 10 q=31.0 size=   16384kB time=00:01:14.28 bitrate=1806.8kbits/s speed=0.167x    frame= 4508 fps= 10 q=31.0 size=   16384kB time=00:01:14.38 bitrate=1804.4kbits/s speed=0.167x    frame= 4513 fps= 10 q=31.0 size=   16384kB time=00:01:14.46 bitrate=1802.4kbits/s speed=0.167x    frame= 4518 fps= 10 q=31.0 size=   16384kB time=00:01:14.55 bitrate=1800.4kbits/s speed=0.167x    frame= 4524 fps= 10 q=31.0 size=   16384kB time=00:01:14.65 bitrate=1798.0kbits/s speed=0.167x    frame= 4529 fps= 10 q=31.0 size=   16640kB time=00:01:14.73 bitrate=1824.0kbits/s speed=0.167x    frame= 4534 fps= 10 q=31.0 size=   16640kB time=00:01:14.81 bitrate=1822.0kbits/s speed=0.167x    frame= 4539 fps= 10 q=31.0 size=   16640kB time=00:01:14.90 bitrate=1820.0kbits/s speed=0.167x    frame= 4544 fps= 10 q=31.0 size=   16640kB time=00:01:14.98 bitrate=1817.9kbits/s speed=0.167x    frame= 4550 fps= 10 q=31.0 size=   16640kB time=00:01:15.08 bitrate=1815.5kbits/s speed=0.167x    frame= 4555 fps= 10 q=31.0 size=   16640kB time=00:01:15.16 bitrate=1813.5kbits/s speed=0.167x    frame= 4561 fps= 10 q=31.0 size=   16640kB time=00:01:15.26 bitrate=1811.1kbits/s speed=0.167x    frame= 4567 fps= 10 q=31.0 size=   16640kB time=00:01:15.36 bitrate=1808.7kbits/s speed=0.167x    frame= 4573 fps= 10 q=31.0 size=   16640kB time=00:01:15.46 bitrate=1806.3kbits/s speed=0.167x    frame= 4579 fps= 10 q=31.0 size=   16640kB time=00:01:15.56 bitrate=1803.9kbits/s speed=0.167x    frame= 4585 fps= 10 q=31.0 size=   16640kB time=00:01:15.66 bitrate=1801.5kbits/s speed=0.167x    frame= 4591 fps= 10 q=31.0 size=   16640kB time=00:01:15.76 bitrate=1799.1kbits/s speed=0.167x    frame= 4597 fps= 10 q=31.0 size=   16896kB time=00:01:15.86 bitrate=1824.4kbits/s speed=0.167x    frame= 4602 fps= 10 q=31.0 size=   16896kB time=00:01:15.95 bitrate=1822.4kbits/s speed=0.167x    frame= 4608 fps= 10 q=31.0 size=   16896kB time=00:01:16.05 bitrate=1820.0kbits/s speed=0.167x    frame= 4613 fps= 10 q=31.0 size=   16896kB time=00:01:16.13 bitrate=1818.0kbits/s speed=0.167x    frame= 4619 fps= 10 q=31.0 size=   16896kB time=00:01:16.23 bitrate=1815.6kbits/s speed=0.167x    frame= 4625 fps= 10 q=31.0 size=   16896kB time=00:01:16.33 bitrate=1813.3kbits/s speed=0.167x    frame= 4630 fps= 10 q=31.0 size=   16896kB time=00:01:16.41 bitrate=1811.3kbits/s speed=0.167x    frame= 4636 fps= 10 q=31.0 size=   16896kB time=00:01:16.51 bitrate=1808.9kbits/s speed=0.167x    frame= 4642 fps= 10 q=31.0 size=   16896kB time=00:01:16.61 bitrate=1806.6kbits/s speed=0.167x    frame= 4647 fps= 10 q=31.0 size=   16896kB time=00:01:16.70 bitrate=1804.6kbits/s speed=0.167x    frame= 4653 fps= 10 q=31.0 size=   16896kB time=00:01:16.80 bitrate=1802.2kbits/s speed=0.167x    frame= 4659 fps= 10 q=31.0 size=   16896kB time=00:01:16.90 bitrate=1799.9kbits/s speed=0.167x    frame= 4665 fps= 10 q=31.0 size=   16896kB time=00:01:17.00 bitrate=1797.6kbits/s speed=0.167x    frame= 4671 fps= 10 q=31.0 size=   16896kB time=00:01:17.10 bitrate=1795.2kbits/s speed=0.167x    frame= 4677 fps= 10 q=31.0 size=   16896kB time=00:01:17.20 bitrate=1792.9kbits/s speed=0.167x    frame= 4683 fps= 10 q=31.0 size=   16896kB time=00:01:17.30 bitrate=1790.6kbits/s speed=0.167x    frame= 4688 fps= 10 q=31.0 size=   16896kB time=00:01:17.38 bitrate=1788.7kbits/s speed=0.167x    frame= 4694 fps= 10 q=31.0 size=   17152kB time=00:01:17.48 bitrate=1813.4kbits/s speed=0.167x    frame= 4699 fps= 10 q=31.0 size=   17152kB time=00:01:17.56 bitrate=1811.5kbits/s speed=0.167x    frame= 4705 fps= 10 q=31.0 size=   17152kB time=00:01:17.66 bitrate=1809.1kbits/s speed=0.167x    frame= 4710 fps= 10 q=31.0 size=   17152kB time=00:01:17.75 bitrate=1807.2kbits/s speed=0.167x    frame= 4716 fps= 10 q=31.0 size=   17152kB time=00:01:17.85 bitrate=1804.9kbits/s speed=0.167x    frame= 4721 fps= 10 q=31.0 size=   17152kB time=00:01:17.93 bitrate=1802.9kbits/s speed=0.167x    frame= 4727 fps= 10 q=31.0 size=   17152kB time=00:01:18.03 bitrate=1800.6kbits/s speed=0.167x    frame= 4733 fps= 10 q=31.0 size=   17152kB time=00:01:18.13 bitrate=1798.3kbits/s speed=0.167x    frame= 4739 fps= 10 q=31.0 size=   17152kB time=00:01:18.23 bitrate=1796.0kbits/s speed=0.167x    frame= 4745 fps= 10 q=31.0 size=   17152kB time=00:01:18.33 bitrate=1793.7kbits/s speed=0.167x    frame= 4750 fps= 10 q=31.0 size=   17152kB time=00:01:18.41 bitrate=1791.8kbits/s speed=0.167x    frame= 4755 fps= 10 q=31.0 size=   17152kB time=00:01:18.50 bitrate=1789.9kbits/s speed=0.167x    frame= 4760 fps= 10 q=31.0 size=   17152kB time=00:01:18.58 bitrate=1788.0kbits/s speed=0.167x    frame= 4766 fps= 10 q=31.0 size=   17152kB time=00:01:18.68 bitrate=1785.8kbits/s speed=0.167x    frame= 4772 fps= 10 q=31.0 size=   17152kB time=00:01:18.78 bitrate=1783.5kbits/s speed=0.167x    frame= 4778 fps= 10 q=31.0 size=   17152kB time=00:01:18.88 bitrate=1781.2kbits/s speed=0.167x    frame= 4785 fps= 10 q=31.0 size=   17152kB time=00:01:19.00 bitrate=1778.6kbits/s speed=0.167x    frame= 4789 fps= 10 q=31.0 size=   17152kB time=00:01:19.06 bitrate=1777.1kbits/s speed=0.167x    frame= 4794 fps= 10 q=31.0 size=   17408kB time=00:01:19.15 bitrate=1801.7kbits/s speed=0.167x    frame= 4800 fps= 10 q=31.0 size=   17408kB time=00:01:19.25 bitrate=1799.5kbits/s speed=0.167x    frame= 4805 fps= 10 q=31.0 size=   17408kB time=00:01:19.33 bitrate=1797.6kbits/s speed=0.167x    frame= 4811 fps= 10 q=31.0 size=   17408kB time=00:01:19.43 bitrate=1795.3kbits/s speed=0.167x    frame= 4817 fps= 10 q=31.0 size=   17408kB time=00:01:19.53 bitrate=1793.0kbits/s speed=0.167x    frame= 4823 fps= 10 q=31.0 size=   17408kB time=00:01:19.63 bitrate=1790.8kbits/s speed=0.167x    frame= 4828 fps= 10 q=31.0 size=   17408kB time=00:01:19.71 bitrate=1788.9kbits/s speed=0.167x    frame= 4834 fps= 10 q=31.0 size=   17408kB time=00:01:19.81 bitrate=1786.7kbits/s speed=0.167x    frame= 4839 fps= 10 q=31.0 size=   17408kB time=00:01:19.90 bitrate=1784.8kbits/s speed=0.167x    frame= 4845 fps= 10 q=31.0 size=   17408kB time=00:01:20.00 bitrate=1782.6kbits/s speed=0.167x    frame= 4851 fps= 10 q=31.0 size=   17408kB time=00:01:20.10 bitrate=1780.4kbits/s speed=0.167x    frame= 4857 fps= 10 q=31.0 size=   17408kB time=00:01:20.20 bitrate=1778.1kbits/s speed=0.167x    frame= 4862 fps= 10 q=31.0 size=   17408kB time=00:01:20.28 bitrate=1776.3kbits/s speed=0.167x    frame= 4867 fps= 10 q=31.0 size=   17408kB time=00:01:20.36 bitrate=1774.4kbits/s speed=0.167x    frame= 4873 fps= 10 q=31.0 size=   17664kB time=00:01:20.46 bitrate=1798.3kbits/s speed=0.167x    frame= 4879 fps= 10 q=31.0 size=   17664kB time=00:01:20.56 bitrate=1796.1kbits/s speed=0.167x    frame= 4884 fps= 10 q=31.0 size=   17664kB time=00:01:20.65 bitrate=1794.2kbits/s speed=0.167x    frame= 4890 fps= 10 q=31.0 size=   17664kB time=00:01:20.75 bitrate=1792.0kbits/s speed=0.167x    frame= 4895 fps= 10 q=31.0 size=   17664kB time=00:01:20.83 bitrate=1790.1kbits/s speed=0.167x    frame= 4901 fps= 10 q=31.0 size=   17664kB time=00:01:20.93 bitrate=1787.9kbits/s speed=0.167x    frame= 4908 fps= 10 q=31.0 size=   17664kB time=00:01:21.05 bitrate=1785.4kbits/s speed=0.167x    frame= 4915 fps= 10 q=31.0 size=   17664kB time=00:01:21.16 bitrate=1782.8kbits/s speed=0.167x    frame= 4921 fps= 10 q=31.0 size=   17664kB time=00:01:21.26 bitrate=1780.6kbits/s speed=0.167x    frame= 4928 fps= 10 q=31.0 size=   17664kB time=00:01:21.38 bitrate=1778.1kbits/s speed=0.167x    frame= 4935 fps= 10 q=31.0 size=   17664kB time=00:01:21.50 bitrate=1775.5kbits/s speed=0.167x    frame= 4941 fps= 10 q=31.0 size=   17664kB time=00:01:21.60 bitrate=1773.3kbits/s speed=0.167x    frame= 4946 fps= 10 q=31.0 size=   17664kB time=00:01:21.68 bitrate=1771.5kbits/s speed=0.167x    frame= 4951 fps= 10 q=31.0 size=   17664kB time=00:01:21.76 bitrate=1769.7kbits/s speed=0.167x    frame= 4957 fps= 10 q=31.0 size=   17664kB time=00:01:21.86 bitrate=1767.6kbits/s speed=0.167x    frame= 4964 fps= 10 q=31.0 size=   17664kB time=00:01:21.98 bitrate=1765.0kbits/s speed=0.167x    frame= 4968 fps= 10 q=31.0 size=   17664kB time=00:01:22.05 bitrate=1763.6kbits/s speed=0.167x    frame= 4975 fps= 10 q=31.0 size=   17664kB time=00:01:22.16 bitrate=1761.1kbits/s speed=0.167x    frame= 4981 fps= 10 q=31.0 size=   17664kB time=00:01:22.26 bitrate=1759.0kbits/s speed=0.167x    frame= 4987 fps= 10 q=31.0 size=   17664kB time=00:01:22.36 bitrate=1756.8kbits/s speed=0.167x    frame= 4994 fps= 10 q=31.0 size=   17664kB time=00:01:22.48 bitrate=1754.3kbits/s speed=0.168x    frame= 5000 fps= 10 q=31.0 size=   17664kB time=00:01:22.58 bitrate=1752.2kbits/s speed=0.168x    frame= 5006 fps= 10 q=31.0 size=   17664kB time=00:01:22.68 bitrate=1750.1kbits/s speed=0.168x    frame= 5012 fps= 10 q=31.0 size=   17664kB time=00:01:22.78 bitrate=1748.0kbits/s speed=0.168x    frame= 5017 fps= 10 q=31.0 size=   17664kB time=00:01:22.86 bitrate=1746.2kbits/s speed=0.168x    frame= 5023 fps= 10 q=31.0 size=   17664kB time=00:01:22.96 bitrate=1744.1kbits/s speed=0.168x    frame= 5028 fps= 10 q=31.0 size=   17664kB time=00:01:23.05 bitrate=1742.4kbits/s speed=0.168x    frame= 5034 fps= 10 q=31.0 size=   17664kB time=00:01:23.15 bitrate=1740.3kbits/s speed=0.168x    frame= 5040 fps= 10 q=31.0 size=   17664kB time=00:01:23.25 bitrate=1738.2kbits/s speed=0.168x    frame= 5046 fps= 10 q=31.0 size=   17664kB time=00:01:23.35 bitrate=1736.1kbits/s speed=0.168x    frame= 5052 fps= 10 q=31.0 size=   17664kB time=00:01:23.45 bitrate=1734.0kbits/s speed=0.168x    frame= 5058 fps= 10 q=31.0 size=   17664kB time=00:01:23.55 bitrate=1731.9kbits/s speed=0.168x    frame= 5064 fps= 10 q=31.0 size=   17664kB time=00:01:23.65 bitrate=1729.9kbits/s speed=0.168x    frame= 5070 fps= 10 q=31.0 size=   17664kB time=00:01:23.75 bitrate=1727.8kbits/s speed=0.168x    frame= 5076 fps= 10 q=31.0 size=   17664kB time=00:01:23.85 bitrate=1725.7kbits/s speed=0.168x    frame= 5082 fps= 10 q=31.0 size=   17664kB time=00:01:23.95 bitrate=1723.7kbits/s speed=0.168x    frame= 5088 fps= 10 q=31.0 size=   17664kB time=00:01:24.05 bitrate=1721.6kbits/s speed=0.168x    frame= 5094 fps= 10 q=31.0 size=   17664kB time=00:01:24.15 bitrate=1719.6kbits/s speed=0.168x    frame= 5100 fps= 10 q=31.0 size=   17664kB time=00:01:24.25 bitrate=1717.6kbits/s speed=0.168x    frame= 5106 fps= 10 q=31.0 size=   17664kB time=00:01:24.35 bitrate=1715.5kbits/s speed=0.168x    frame= 5112 fps= 10 q=31.0 size=   17664kB time=00:01:24.45 bitrate=1713.5kbits/s speed=0.168x    frame= 5117 fps= 10 q=31.0 size=   17664kB time=00:01:24.53 bitrate=1711.8kbits/s speed=0.168x    frame= 5123 fps= 10 q=31.0 size=   17664kB time=00:01:24.63 bitrate=1709.8kbits/s speed=0.168x    frame= 5129 fps= 10 q=31.0 size=   17664kB time=00:01:24.73 bitrate=1707.8kbits/s speed=0.168x    frame= 5135 fps= 10 q=31.0 size=   17664kB time=00:01:24.83 bitrate=1705.7kbits/s speed=0.168x    frame= 5140 fps= 10 q=31.0 size=   17664kB time=00:01:24.91 bitrate=1704.1kbits/s speed=0.168x    frame= 5146 fps= 10 q=31.0 size=   17920kB time=00:01:25.01 bitrate=1726.7kbits/s speed=0.168x    frame= 5152 fps= 10 q=31.0 size=   17920kB time=00:01:25.11 bitrate=1724.7kbits/s speed=0.168x    frame= 5158 fps= 10 q=31.0 size=   17920kB time=00:01:25.21 bitrate=1722.7kbits/s speed=0.168x    frame= 5164 fps= 10 q=31.0 size=   17920kB time=00:01:25.31 bitrate=1720.7kbits/s speed=0.168x    frame= 5170 fps= 10 q=31.0 size=   17920kB time=00:01:25.41 bitrate=1718.6kbits/s speed=0.168x    frame= 5176 fps= 10 q=31.0 size=   17920kB time=00:01:25.51 bitrate=1716.6kbits/s speed=0.168x    frame= 5182 fps= 10 q=31.0 size=   17920kB time=00:01:25.61 bitrate=1714.6kbits/s speed=0.168x    frame= 5187 fps= 10 q=31.0 size=   17920kB time=00:01:25.70 bitrate=1713.0kbits/s speed=0.168x    frame= 5193 fps= 10 q=31.0 size=   17920kB time=00:01:25.80 bitrate=1711.0kbits/s speed=0.168x    frame= 5199 fps= 10 q=31.0 size=   17920kB time=00:01:25.90 bitrate=1709.0kbits/s speed=0.168x    frame= 5205 fps= 10 q=31.0 size=   17920kB time=00:01:26.00 bitrate=1707.0kbits/s speed=0.168x    frame= 5210 fps= 10 q=31.0 size=   17920kB time=00:01:26.08 bitrate=1705.3kbits/s speed=0.168x    frame= 5216 fps= 10 q=31.0 size=   17920kB time=00:01:26.18 bitrate=1703.4kbits/s speed=0.168x    frame= 5222 fps= 10 q=31.0 size=   17920kB time=00:01:26.28 bitrate=1701.4kbits/s speed=0.168x    frame= 5227 fps= 10 q=31.0 size=   17920kB time=00:01:26.36 bitrate=1699.7kbits/s speed=0.168x    frame= 5233 fps= 10 q=31.0 size=   17920kB time=00:01:26.46 bitrate=1697.8kbits/s speed=0.168x    frame= 5239 fps= 10 q=31.0 size=   17920kB time=00:01:26.56 bitrate=1695.8kbits/s speed=0.168x    frame= 5245 fps= 10 q=31.0 size=   17920kB time=00:01:26.66 bitrate=1693.9kbits/s speed=0.168x    frame= 5250 fps= 10 q=31.0 size=   17920kB time=00:01:26.75 bitrate=1692.2kbits/s speed=0.168x    frame= 5256 fps= 10 q=31.0 size=   17920kB time=00:01:26.85 bitrate=1690.3kbits/s speed=0.168x    frame= 5262 fps= 10 q=31.0 size=   17920kB time=00:01:26.95 bitrate=1688.3kbits/s speed=0.168x    frame= 5269 fps= 10 q=31.0 size=   17920kB time=00:01:27.06 bitrate=1686.1kbits/s speed=0.168x    frame= 5272 fps= 10 q=-1.0 Lsize=   18011kB time=00:01:27.85 bitrate=1679.5kbits/s speed=0.17x    
video:17989kB audio:0kB subtitle:0kB other streams:0kB global headers:0kB muxing overhead: 0.120890%
[libx264 @ 0x564e4702b740] frame I:22    Avg QP:21.80  size: 36446
[libx264 @ 0x564e4702b740] frame P:5250  Avg QP:27.02  size:  3356
[libx264 @ 0x564e4702b740] mb I  I16..4: 36.7% 53.7%  9.5%
[libx264 @ 0x564e4702b740] mb P  I16..4:  0.6%  0.6%  0.1%  P16..4:  9.5%  1.2%  1.5%  0.0%  0.0%    skip:86.5%
[libx264 @ 0x564e4702b740] 8x8 transform intra:48.6% inter:69.1%
[libx264 @ 0x564e4702b740] coded y,uvDC,uvAC intra: 9.7% 9.7% 3.4% inter: 1.4% 1.4% 0.1%
[libx264 @ 0x564e4702b740] i16 v,h,dc,p:  8% 31%  3% 58%
[libx264 @ 0x564e4702b740] i8 v,h,dc,ddl,ddr,vr,hd,vl,hu: 13%  8% 73%  1%  1%  1%  1%  1%  1%
[libx264 @ 0x564e4702b740] i4 v,h,dc,ddl,ddr,vr,hd,vl,hu: 27% 20% 26%  5%  4%  4%  4%  5%  4%
[libx264 @ 0x564e4702b740] i8c dc,h,v,p: 89%  6%  5%  1%
[libx264 @ 0x564e4702b740] Weighted P-Frames: Y:0.0% UV:0.0%
[libx264 @ 0x564e4702b740] ref P L0: 57.3% 19.2% 15.7%  7.8%
[libx264 @ 0x564e4702b740] kb/s:1677.11
